<svg width="108" height="55" viewBox="0 0 108 55" fill="none" xmlns="http://www.w3.org/2000/svg">
<path d="M107.62 17.0502C105.153 25.4502 101.886 34.7835 97.8195 45.0502C97.4195 46.0502 96.6029 47.3169 95.3695 48.8502C94.1695 50.3835 92.8362 51.7169 91.3695 52.8502C89.9029 53.9835 88.5862 54.5502 87.4195 54.5502C86.2195 54.5502 84.8862 53.7002 83.4195 52.0002C81.9862 50.3335 80.9195 48.9169 80.2195 47.7502C80.0862 47.5169 80.0195 47.2835 80.0195 47.0502C80.0195 46.5169 80.3362 46.0669 80.9695 45.7002C81.5695 45.3335 82.2195 45.1502 82.9195 45.1502C83.8529 45.1502 84.4862 45.4502 84.8195 46.0502C85.1862 46.6502 85.7862 47.4835 86.6195 48.5502C87.4529 49.6502 88.0195 50.3835 88.3195 50.7502C88.5529 50.5835 89.0195 50.1669 89.7195 49.5002C90.4195 48.8335 91.1362 48.0669 91.8695 47.2002C92.6362 46.3335 93.1529 45.5835 93.4195 44.9502C97.4529 34.6835 100.686 25.4502 103.12 17.2502C103.32 16.6169 103.703 16.1335 104.27 15.8002C104.87 15.4335 105.486 15.2502 106.12 15.2502C106.586 15.2502 106.97 15.3669 107.27 15.6002C107.57 15.8002 107.72 16.0835 107.72 16.4502C107.72 16.6835 107.686 16.8835 107.62 17.0502ZM94.1695 43.8002C91.1029 35.8002 87.3695 27.3002 82.9695 18.3002C82.8695 18.1002 82.8195 17.9002 82.8195 17.7002C82.8195 17.0669 83.1695 16.5002 83.8695 16.0002C84.5695 15.4669 85.2695 15.2002 85.9695 15.2002C86.6695 15.2002 87.1362 15.4669 87.3695 16.0002C90.7362 22.9002 94.4362 31.4669 98.4695 41.7002C98.5029 41.8669 98.5195 42.0335 98.5195 42.2002C98.5195 42.8002 98.1695 43.3502 97.4695 43.8502C96.8029 44.3502 96.1362 44.6002 95.4695 44.6002C94.8362 44.6002 94.4029 44.3335 94.1695 43.8002Z" fill="white"/>
<path d="M69.2941 40.7002C69.3608 40.7002 70.0608 39.8669 71.3941 38.2002C72.7608 36.5002 73.9941 34.8335 75.0941 33.2002C76.1941 31.5669 76.7441 30.4169 76.7441 29.7502C76.7441 29.1835 76.1608 28.0669 74.9941 26.4002C73.8275 24.7335 72.6108 23.1335 71.3441 21.6002C70.1108 20.0669 69.2941 19.0669 68.8941 18.6002C68.8275 18.6002 68.1108 19.4502 66.7441 21.1502C65.4108 22.8169 64.1941 24.4669 63.0941 26.1002C61.9941 27.7335 61.4441 28.8835 61.4441 29.5502C61.4441 30.1169 62.0275 31.2335 63.1941 32.9002C64.3608 34.5669 65.5608 36.1669 66.7941 37.7002C68.0608 39.2335 68.8941 40.2335 69.2941 40.7002ZM67.8941 44.6002C66.7608 44.6002 65.3108 43.6835 63.5441 41.8502C61.7775 39.9835 60.1941 37.9169 58.7941 35.6502C57.4275 33.3502 56.7441 31.7169 56.7441 30.7502C56.7441 29.7169 57.5441 27.8669 59.1441 25.2002C60.7441 22.5002 62.5941 20.0835 64.6941 17.9502C66.7941 15.7835 68.6608 14.7002 70.2941 14.7002C71.4275 14.7002 72.8775 15.6335 74.6441 17.5002C76.4108 19.3335 77.9775 21.4002 79.3441 23.7002C80.7441 25.9669 81.4441 27.5835 81.4441 28.5502C81.4441 29.5835 80.6441 31.4502 79.0441 34.1502C77.4441 36.8169 75.5941 39.2335 73.4941 41.4002C71.3941 43.5335 69.5275 44.6002 67.8941 44.6002Z" fill="white"/>
<path d="M34.0867 24.0502V41.5502C34.0867 42.2502 33.7367 42.8502 33.0367 43.3502C32.3367 43.8502 31.6201 44.1002 30.8867 44.1002C30.4534 44.1002 30.0867 43.9835 29.7867 43.7502C29.5201 43.5169 29.3867 43.1835 29.3867 42.7502V25.2502V2.7502C29.3867 2.0502 29.7201 1.4502 30.3867 0.950195C31.0867 0.450196 31.8034 0.200195 32.5367 0.200195C33.0034 0.200195 33.3701 0.316863 33.6367 0.550198C33.9367 0.750197 34.0867 1.08353 34.0867 1.5502V24.0502ZM31.3367 28.8502C31.3367 28.1502 31.9367 26.6002 33.1367 24.2002C34.3367 21.8002 35.7534 19.6169 37.3867 17.6502C39.0201 15.6835 40.6034 14.7002 42.1367 14.7002C43.1367 14.7002 44.4034 15.3835 45.9367 16.7502C47.5034 18.0835 48.8867 19.6002 50.0867 21.3002C51.2867 22.9669 51.8867 24.2335 51.8867 25.1002V41.5502C51.8867 42.2502 51.5367 42.8502 50.8367 43.3502C50.1367 43.8502 49.4201 44.1002 48.6867 44.1002C48.2534 44.1002 47.8867 43.9835 47.5867 43.7502C47.3201 43.5169 47.1867 43.1835 47.1867 42.7502V26.3002C47.1867 25.9002 46.7034 25.1335 45.7367 24.0002C44.8034 22.8335 43.8201 21.7169 42.7867 20.6502C41.7534 19.5835 41.0701 18.9002 40.7367 18.6002C40.6701 18.6002 40.0201 19.2502 38.7867 20.5502C37.5867 21.8169 36.4867 23.1335 35.4867 24.5002C34.5201 25.8669 34.0367 26.9835 34.0367 27.8502C34.0367 28.2169 33.7867 28.5669 33.2867 28.9002C32.8201 29.2002 32.3701 29.3502 31.9367 29.3502C31.5367 29.3502 31.3367 29.1835 31.3367 28.8502Z" fill="white"/>
<path d="M0.55 23.9502C1.55 22.7169 2.81667 21.3835 4.35 19.9502C5.91667 18.4835 7.53333 17.2502 9.2 16.2502C10.8667 15.2169 12.3167 14.7002 13.55 14.7002C14.4833 14.7002 15.7 15.3669 17.2 16.7002C18.7333 18.0002 20.0833 19.4669 21.25 21.1002C22.45 22.7002 23.05 23.8502 23.05 24.5502V34.0502V41.5502C23.05 42.2502 22.7 42.8502 22 43.3502C21.3 43.8502 20.5833 44.1002 19.85 44.1002C19.4167 44.1002 19.05 43.9835 18.75 43.7502C18.4833 43.5169 18.35 43.1835 18.35 42.7502V35.2502V25.7502C18.35 25.5169 17.4833 24.4502 15.75 22.5502C14.0167 20.6169 12.8167 19.3002 12.15 18.6002C11.85 18.8002 11.2167 19.2502 10.25 19.9502C9.28333 20.6169 8.2 21.4669 7 22.5002C5.83333 23.5002 4.88333 24.4502 4.15 25.3502C3.85 25.7502 3.48333 26.0669 3.05 26.3002C2.61667 26.5002 2.18333 26.6002 1.75 26.6002C1.25 26.6002 0.833333 26.4669 0.5 26.2002C0.166667 25.9335 0 25.6002 0 25.2002C0 24.7669 0.183333 24.3502 0.55 23.9502ZM8.9 32.1002L4.95 34.7002C4.95 34.7669 5.83333 35.6335 7.6 37.3002C9.36667 38.9669 10.5833 40.1002 11.25 40.7002C11.3833 40.7002 11.7167 40.5169 12.25 40.1502C12.8167 39.7502 13.6333 38.9169 14.7 37.6502C15.8 36.3502 17.0833 34.4835 18.55 32.0502C18.75 31.7169 19.0167 31.4669 19.35 31.3002C19.7167 31.1002 20.0833 31.0002 20.45 31.0002C20.9167 31.0002 21.15 31.1502 21.15 31.4502C21.15 31.6169 21.0833 31.7835 20.95 31.9502L19.75 34.0002C18.2833 36.5002 17.0833 38.4335 16.15 39.8002C15.25 41.1669 14.2667 42.3002 13.2 43.2002C12.1333 44.1335 11.0167 44.6002 9.85 44.6002C8.98333 44.6002 7.78333 44.0169 6.25 42.8502C4.71667 41.7169 3.33333 40.4502 2.1 39.0502C0.866667 37.6169 0.25 36.5669 0.25 35.9002C0.25 35.1335 0.9 34.1502 2.2 32.9502C3.5 31.7169 4.96667 30.6169 6.6 29.6502C8.23333 28.6835 9.46667 28.2002 10.3 28.2002H20.9C21.4333 28.2002 21.8333 28.3169 22.1 28.5502C22.3667 28.7502 22.5 29.0335 22.5 29.4002C22.5 30.0335 22.2 30.6502 21.6 31.2502C21 31.8169 20.3 32.1002 19.5 32.1002H8.9Z" fill="white"/>
</svg>
