<svg width="111" height="55" viewBox="0 0 111 55" fill="none" xmlns="http://www.w3.org/2000/svg">
<path d="M110.72 17.5498C107.987 26.7831 104.737 36.0998 100.97 45.4998C100.603 46.3331 100.337 47.0331 100.17 47.5998C99.5033 49.3998 98.8699 50.7498 98.2699 51.6498C97.6699 52.5831 96.6866 53.3331 95.3199 53.8998C93.9533 54.4665 91.9866 54.7498 89.4199 54.7498C87.6866 54.7498 86.1533 54.3665 84.8199 53.5998C83.4866 52.8665 82.4699 51.9331 81.7699 50.7998C81.0366 49.6998 80.6699 48.5998 80.6699 47.4998C80.6699 46.6331 81.3033 46.1998 82.5699 46.1998C83.3366 46.1998 84.1699 46.3498 85.0699 46.6498C85.9699 46.9831 86.7199 47.3998 87.3199 47.8998C87.9533 48.3998 88.2699 48.9331 88.2699 49.4998C88.2699 49.9665 88.4199 50.2831 88.7199 50.4498C89.0199 50.6498 89.2533 50.7498 89.4199 50.7498C89.6533 50.7498 90.0699 50.3665 90.6699 49.5998C91.2699 48.8331 92.0699 47.1998 93.0699 44.6998C96.7366 35.7665 99.9866 26.5165 102.82 16.9498C102.987 16.4165 103.437 16.0165 104.17 15.7498C104.903 15.4498 105.753 15.2998 106.72 15.2998C107.92 15.2998 108.937 15.5165 109.77 15.9498C110.603 16.3498 110.92 16.8831 110.72 17.5498ZM93.9199 43.1998C90.6533 34.8331 86.9033 26.3498 82.6699 17.7498C82.6033 17.6165 82.5699 17.4165 82.5699 17.1498C82.5699 16.5831 82.9866 16.1331 83.8199 15.7998C84.6199 15.4665 85.5533 15.2998 86.6199 15.2998C87.5199 15.2998 88.3199 15.4331 89.0199 15.6998C89.7533 15.9331 90.2366 16.2831 90.4699 16.7498C94.0699 24.1498 97.7533 32.7331 101.52 42.4998L101.62 42.8998C101.62 43.4331 101.22 43.8665 100.42 44.1998C99.6199 44.5331 98.7033 44.6998 97.6699 44.6998C96.7699 44.6998 95.9699 44.5665 95.2699 44.2998C94.5699 44.0331 94.1199 43.6665 93.9199 43.1998Z" fill="white"/>
<path d="M70.4941 40.75C71.2275 40.75 72.1108 40.4 73.1441 39.7C74.1775 39 75.0775 37.8667 75.8441 36.3C76.6108 34.7 76.9941 32.6833 76.9941 30.25C76.9941 27.5833 76.5775 25.3833 75.7441 23.65C74.9108 21.9167 73.9608 20.6667 72.8941 19.9C71.8608 19.1333 71.0608 18.75 70.4941 18.75C69.7608 18.75 68.8775 19.1 67.8441 19.8C66.8108 20.5 65.9108 21.65 65.1441 23.25C64.3775 24.8167 63.9941 26.8167 63.9941 29.25C63.9941 31.9167 64.4108 34.1167 65.2441 35.85C66.0775 37.5833 67.0108 38.8333 68.0441 39.6C69.1108 40.3667 69.9275 40.75 70.4941 40.75ZM70.4941 44.75C65.3608 44.75 61.6608 43.3 59.3941 40.4C57.1275 37.4667 55.9941 33.75 55.9941 29.25C55.9941 26.75 56.4441 24.4167 57.3441 22.25C58.2441 20.0833 59.7608 18.3 61.8941 16.9C64.0608 15.4667 66.9275 14.75 70.4941 14.75C75.6275 14.75 79.3275 16.2167 81.5941 19.15C83.8608 22.05 84.9941 25.75 84.9941 30.25C84.9941 32.75 84.5441 35.0833 83.6441 37.25C82.7441 39.4167 81.2108 41.2 79.0441 42.6C76.9108 44.0333 74.0608 44.75 70.4941 44.75Z" fill="white"/>
<path d="M37.1367 24.7498V42.2498C37.1367 42.8498 36.7534 43.3165 35.9867 43.6498C35.2201 44.0165 34.3034 44.1998 33.2367 44.1998C32.1367 44.1998 31.1701 44.0165 30.3367 43.6498C29.5367 43.3165 29.1367 42.8498 29.1367 42.2498V24.7498V2.24981C29.1367 1.64981 29.5201 1.18314 30.2867 0.849804C31.0534 0.483138 31.9701 0.299805 33.0367 0.299805C34.1367 0.299805 35.0867 0.483138 35.8867 0.849804C36.7201 1.18314 37.1367 1.64981 37.1367 2.24981V24.7498ZM31.0867 38.1498C31.0867 34.2165 31.4034 30.5665 32.0367 27.1998C32.6701 23.8331 34.0867 20.8998 36.2867 18.3998C38.5201 15.8998 41.7867 14.6498 46.0867 14.6498C49.3201 14.6498 51.6034 15.5165 52.9367 17.2498C54.2701 18.9831 54.9367 21.1665 54.9367 23.7998V42.2498C54.9367 42.8498 54.5534 43.3165 53.7867 43.6498C53.0201 44.0165 52.1034 44.1998 51.0367 44.1998C49.9367 44.1998 48.9701 44.0165 48.1367 43.6498C47.3367 43.3165 46.9367 42.8498 46.9367 42.2498V23.7998C46.9367 22.4665 46.7367 21.4331 46.3367 20.6998C45.9701 19.9665 45.5701 19.4831 45.1367 19.2498C44.7367 18.9831 44.4201 18.8498 44.1867 18.8498C43.6201 18.8498 42.7534 19.9998 41.5867 22.2998C40.4201 24.5665 39.3701 27.4498 38.4367 30.9498C37.5367 34.4498 37.0867 38.0331 37.0867 41.6998C37.0867 42.0331 36.7867 42.2831 36.1867 42.4498C35.6201 42.6498 34.9367 42.7498 34.1367 42.7498C33.3367 42.7498 32.6201 42.6498 31.9867 42.4498C31.3867 42.2498 31.0867 41.9998 31.0867 41.6998V38.1498Z" fill="white"/>
<path d="M0.85 25.9C0.383333 24.8667 0.15 23.8167 0.15 22.75C0.15 21.2167 0.65 19.85 1.65 18.65C2.68333 17.4167 4.16667 16.4667 6.1 15.8C8.06667 15.1 10.4 14.75 13.1 14.75C15.9667 14.75 18.3667 15.1833 20.3 16.05C22.2667 16.9167 23.7167 18.1167 24.65 19.65C25.6167 21.15 26.1 22.85 26.1 24.75V34.75V42.25C26.1 42.85 25.7167 43.3167 24.95 43.65C24.1833 44.0167 23.2667 44.2 22.2 44.2C21.1 44.2 20.1333 44.0167 19.3 43.65C18.5 43.3167 18.1 42.85 18.1 42.25V34.75V24.75C18.1 22.4833 17.5667 20.9167 16.5 20.05C15.4333 19.1833 14.3 18.75 13.1 18.75C11.7667 18.75 10.5833 19.05 9.55 19.65C8.51667 20.2167 8 21.1333 8 22.4C8 23.2 8.21667 24.1 8.65 25.1C8.75 25.2333 8.8 25.4 8.8 25.6C8.8 26.1667 8.4 26.6167 7.6 26.95C6.8 27.2833 5.85 27.45 4.75 27.45C3.85 27.45 3.01667 27.3167 2.25 27.05C1.51667 26.7833 1.05 26.4 0.85 25.9ZM18.6 33.5C17.0667 32.7667 15.8833 32.3 15.05 32.1C14.2167 31.8667 13.1667 31.75 11.9 31.75C11 31.75 10.1167 32.1 9.25 32.8C8.41667 33.5 8 34.6167 8 36.15C8 37.3167 8.1 38.25 8.3 38.95C8.53333 39.6167 8.76667 40.0833 9 40.35C9.23333 40.6167 9.4 40.75 9.5 40.75C10 40.75 10.9667 40.3333 12.4 39.5C13.8667 38.6333 15.1833 37.5667 16.35 36.3C17.55 35 18.1667 33.6833 18.2 32.35C18.2 31.9167 18.35 31.5833 18.65 31.35C18.9833 31.0833 19.3667 30.95 19.8 30.95C20.2667 30.95 20.6667 31.0833 21 31.35C21.3333 31.5833 21.5 31.9 21.5 32.3C21.5 33.9333 21.1833 35.7 20.55 37.6C19.9167 39.4667 18.7 41.1167 16.9 42.55C15.1333 44.0167 12.6667 44.75 9.5 44.75C7.2 44.75 5.33333 44.3 3.9 43.4C2.5 42.5333 1.5 41.45 0.9 40.15C0.3 38.85 0 37.5167 0 36.15C0 34.6833 0.45 33.3167 1.35 32.05C2.25 30.7833 3.6 29.75 5.4 28.95C7.2 28.15 9.36667 27.75 11.9 27.75C15.9333 27.75 19.8333 28.6667 23.6 30.5C24.4667 30.9333 24.9 31.4167 24.9 31.95C24.9 32.4833 24.5 32.9667 23.7 33.4C22.9333 33.8 22.0333 34 21 34C20.1 34 19.3 33.8333 18.6 33.5Z" fill="white"/>
</svg>
