<svg width="108" height="56" viewBox="0 0 108 56" fill="none" xmlns="http://www.w3.org/2000/svg">
<path d="M107.62 17.7C106.987 19.4333 106.07 22.0667 104.87 25.6L97.8703 45.55C97.1036 47.7167 96.3703 49.45 95.6703 50.75C95.0036 52.05 94.137 53.1 93.0703 53.9C92.037 54.7333 90.737 55.15 89.1703 55.15C87.8703 55.15 86.5036 54.9333 85.0703 54.5C83.637 54.1 82.3703 53.5667 81.2703 52.9C80.8036 52.6333 80.5703 52.2667 80.5703 51.8C80.5703 51.2333 80.9036 50.7 81.5703 50.2C82.2036 49.7333 82.887 49.5 83.6203 49.5C84.1203 49.5 84.5036 49.6 84.7703 49.8C85.4036 50.1667 86.337 50.5 87.5703 50.8C88.837 51.1 89.8703 51.25 90.6703 51.25C91.137 51.25 92.037 49.35 93.3703 45.55C94.9703 41.1167 97.3036 34.4667 100.37 25.6C101.004 23.8667 101.92 21.2333 103.12 17.7C103.32 17.1 103.704 16.6333 104.27 16.3C104.87 15.9667 105.47 15.8 106.07 15.8C106.537 15.8 106.92 15.9167 107.22 16.15C107.554 16.35 107.72 16.65 107.72 17.05L107.62 17.7ZM88.6203 31.65L82.9203 18.8L82.8203 18.25C82.8203 17.6167 83.1703 17.05 83.8703 16.55C84.5703 16.0167 85.2703 15.75 85.9703 15.75C86.6703 15.75 87.1536 16.0333 87.4203 16.6L98.4203 42.25C98.5203 42.3833 98.5703 42.55 98.5703 42.75C98.5703 43.3167 98.2203 43.85 97.5203 44.35C96.8536 44.8833 96.187 45.15 95.5203 45.15C94.8536 45.15 94.4203 44.8833 94.2203 44.35L88.6203 31.65Z" fill="white"/>
<path d="M70.2941 41.25C72.2608 41.25 73.9108 40.2 75.2441 38.1C76.5775 35.9667 77.2441 32.5333 77.2441 27.8C77.2441 25.1333 76.3941 23.0333 74.6941 21.5C72.9941 19.9333 70.7275 19.15 67.8941 19.15C65.9608 19.15 64.3108 20.3 62.9441 22.6C61.6108 24.8667 60.9441 28.7 60.9441 34.1C60.9441 36.3 61.8275 38.05 63.5941 39.35C65.3608 40.6167 67.5941 41.25 70.2941 41.25ZM68.8941 45.15C66.3608 45.15 64.1441 44.7333 62.2441 43.9C60.3441 43.0667 58.8608 41.9167 57.7941 40.45C56.7608 38.95 56.2441 37.2333 56.2441 35.3C56.2441 29.5 57.2941 24.7167 59.3941 20.95C61.4941 17.15 64.7941 15.25 69.2941 15.25C71.7275 15.25 73.8941 15.7 75.7941 16.6C77.7275 17.5 79.2275 18.8167 80.2941 20.55C81.3941 22.25 81.9441 24.2667 81.9441 26.6C81.9441 31.9 80.8775 36.3167 78.7441 39.85C76.6441 43.3833 73.3608 45.15 68.8941 45.15Z" fill="white"/>
<path d="M34.0867 24.6V42.1C34.0867 42.8 33.7367 43.4 33.0367 43.9C32.3367 44.4 31.6201 44.65 30.8867 44.65C30.4534 44.65 30.0867 44.5333 29.7867 44.3C29.5201 44.0667 29.3867 43.7333 29.3867 43.3V25.8V3.3C29.3867 2.6 29.7201 2 30.3867 1.5C31.0867 1 31.8034 0.75 32.5367 0.75C33.0034 0.75 33.3701 0.866668 33.6367 1.1C33.9367 1.3 34.0867 1.63333 34.0867 2.1V24.6ZM31.3367 32.4C31.3367 31.8 32.0867 30.0167 33.5867 27.05C35.0867 24.0833 36.9367 21.3833 39.1367 18.95C41.3701 16.4833 43.7034 15.25 46.1367 15.25C48.0367 15.25 49.4701 16.2333 50.4367 18.2C51.4034 20.1333 51.8867 22.45 51.8867 25.15V42.1C51.8867 42.8 51.5367 43.4 50.8367 43.9C50.1367 44.4 49.4201 44.65 48.6867 44.65C48.2534 44.65 47.8867 44.5333 47.5867 44.3C47.3201 44.0667 47.1867 43.7333 47.1867 43.3V26.35C47.1867 24.85 47.0034 23.5667 46.6367 22.5C46.3034 21.4333 45.9201 20.6167 45.4867 20.05C45.0867 19.45 44.8367 19.15 44.7367 19.15C44.3367 19.15 43.2201 20.0333 41.3867 21.8C39.5867 23.5667 37.9034 25.4333 36.3367 27.4C34.8034 29.3333 34.0367 30.6667 34.0367 31.4C34.0367 31.7667 33.7867 32.1167 33.2867 32.45C32.8201 32.75 32.3701 32.9 31.9367 32.9C31.5367 32.9 31.3367 32.7333 31.3367 32.4Z" fill="white"/>
<path d="M0.95 23.55C7.45 18.0167 12.85 15.25 17.15 15.25C21.0833 15.25 23.05 18.5333 23.05 25.1V34.6V42.1C23.05 42.8 22.7 43.4 22 43.9C21.3 44.4 20.5833 44.65 19.85 44.65C19.4167 44.65 19.05 44.5333 18.75 44.3C18.4833 44.0667 18.35 43.7333 18.35 43.3V35.8V26.3C18.35 24.4333 18.1833 22.9667 17.85 21.9C17.5167 20.8333 17.15 20.1167 16.75 19.75C16.35 19.35 16.0167 19.15 15.75 19.15C15.35 19.15 14.4333 19.4667 13 20.1C11.6 20.7333 10.0333 21.5667 8.3 22.6C6.6 23.6 5.08333 24.6833 3.75 25.85C3.11667 26.3833 2.45 26.65 1.75 26.65C1.25 26.65 0.833333 26.5167 0.5 26.25C0.166667 25.9833 0 25.6333 0 25.2C0 24.6333 0.316667 24.0833 0.95 23.55ZM5.7 32.65C5.4 32.65 5.2 32.8 5.1 33.1C5 33.4 4.95 34.1167 4.95 35.25C4.95 37.6167 5.2 39.2167 5.7 40.05C6.23333 40.85 6.75 41.25 7.25 41.25C7.38333 41.25 8.26667 40.7667 9.9 39.8C11.5667 38.8333 13.2333 37.7 14.9 36.4C16.5667 35.1 17.7833 33.8333 18.55 32.6C18.75 32.2667 19.0333 32.0167 19.4 31.85C19.7667 31.65 20.1167 31.55 20.45 31.55C20.9167 31.55 21.15 31.7 21.15 32C21.15 32.1667 21.0833 32.3333 20.95 32.5C19.9833 34.0667 18.5833 35.85 16.75 37.85C14.9167 39.85 13 41.5667 11 43C9 44.4333 7.28333 45.15 5.85 45.15C3.98333 45.15 2.58333 44.4 1.65 42.9C0.716667 41.4333 0.25 39.2833 0.25 36.45C0.25 35.0833 0.55 33.8167 1.15 32.65C1.78333 31.45 2.66667 30.5 3.8 29.8C4.96667 29.1 6.3 28.75 7.8 28.75H20.9C21.4333 28.75 21.8333 28.8667 22.1 29.1C22.3667 29.3 22.5 29.5833 22.5 29.95C22.5 30.5833 22.2 31.2 21.6 31.8C21 32.3667 20.3 32.65 19.5 32.65H5.7Z" fill="white"/>
</svg>
