<svg width="109" height="55" viewBox="0 0 109 55" fill="none" xmlns="http://www.w3.org/2000/svg">
<path d="M104.021 28.3004C102.987 31.2671 101.887 34.3671 100.721 37.6004C99.5874 40.8337 98.4207 44.2171 97.2207 47.7504C96.7874 48.9171 96.0707 50.0171 95.0707 51.0504C94.104 52.1171 93.0207 52.9671 91.8207 53.6004C90.6207 54.2337 89.5207 54.5504 88.5207 54.5504L84.7207 54.5004C84.3874 54.4671 83.9207 54.4504 83.3207 54.4504C82.7207 54.4504 82.2707 54.3171 81.9707 54.0504C81.6374 53.8171 81.4707 53.5004 81.4707 53.1004C81.4707 52.5337 81.754 52.0004 82.3207 51.5004C82.8874 51.0004 83.5874 50.7504 84.4207 50.7504C85.154 50.7504 85.7374 50.7337 86.1707 50.7004L90.4707 50.6504C90.9374 50.6504 91.254 50.6004 91.4207 50.5004C91.6207 50.4004 91.7874 50.1837 91.9207 49.8504C92.0874 49.5171 92.354 48.8171 92.7207 47.7504L99.5707 28.3004C101.704 22.2671 103.004 18.5337 103.471 17.1004C103.671 16.5004 104.054 16.0337 104.621 15.7004C105.221 15.3671 105.821 15.2004 106.421 15.2004C106.887 15.2004 107.271 15.3171 107.571 15.5504C107.904 15.7504 108.071 16.0504 108.071 16.4504L107.971 17.1004L104.021 28.3004ZM88.9707 31.0504L83.2707 18.2004L83.1707 17.6504C83.1707 17.0171 83.5207 16.4504 84.2207 15.9504C84.9207 15.4171 85.6207 15.1504 86.3207 15.1504C87.0207 15.1504 87.504 15.4337 87.7707 16.0004L98.7707 41.6504C98.8707 41.7837 98.9207 41.9504 98.9207 42.1504C98.9207 42.7171 98.5707 43.2504 97.8707 43.7504C97.204 44.2837 96.5374 44.5504 95.8707 44.5504C95.204 44.5504 94.7707 44.2837 94.5707 43.7504L88.9707 31.0504Z" fill="white"/>
<path d="M66.6437 40.6504C69.8437 40.6504 72.1771 40.3504 73.6437 39.7504C75.1104 39.1504 76.1271 37.9671 76.6938 36.2004C77.2938 34.4004 77.5938 31.5671 77.5938 27.7004C77.5938 24.3671 77.1604 22.0171 76.2938 20.6504C75.4271 19.2504 74.0771 18.5504 72.2438 18.5504C69.0771 18.5504 66.7438 18.8671 65.2438 19.5004C63.7771 20.1337 62.7438 21.3837 62.1438 23.2504C61.5771 25.0837 61.2938 28.0004 61.2938 32.0004C61.2938 35.1671 61.7271 37.4004 62.5938 38.7004C63.4604 40.0004 64.8104 40.6504 66.6437 40.6504ZM65.2438 44.5504C62.9771 44.5504 61.2104 44.1004 59.9438 43.2004C58.6771 42.3004 57.7938 41.0337 57.2938 39.4004C56.8271 37.7671 56.5938 35.7004 56.5938 33.2004C56.5938 26.9671 57.9604 22.3171 60.6938 19.2504C63.4271 16.1837 67.7437 14.6504 73.6437 14.6504C75.9104 14.6504 77.6771 15.1171 78.9438 16.0504C80.2104 16.9837 81.0771 18.3004 81.5438 20.0004C82.0438 21.7004 82.2938 23.8671 82.2938 26.5004C82.2938 32.5671 80.9271 37.1004 78.1938 40.1004C75.4938 43.0671 71.1771 44.5504 65.2438 44.5504Z" fill="white"/>
<path d="M34.4363 24.0004V41.5004C34.4363 42.2004 34.0863 42.8004 33.3863 43.3004C32.6863 43.8004 31.9697 44.0504 31.2363 44.0504C30.803 44.0504 30.4363 43.9337 30.1363 43.7004C29.8697 43.4671 29.7363 43.1337 29.7363 42.7004V25.2004V2.70039C29.7363 2.00039 30.0697 1.40039 30.7363 0.900391C31.4363 0.400391 32.153 0.150391 32.8863 0.150391C33.353 0.150391 33.7197 0.267059 33.9863 0.500393C34.2863 0.700392 34.4363 1.03372 34.4363 1.50039V24.0004ZM31.6863 29.8004C31.6863 27.1004 32.2863 24.6004 33.4863 22.3004C34.6863 19.9671 36.4697 18.1171 38.8363 16.7504C41.2363 15.3504 44.1197 14.6504 47.4863 14.6504C48.953 14.6504 50.103 15.0171 50.9363 15.7504C51.803 16.4504 52.2363 17.5337 52.2363 19.0004V41.5004C52.2363 42.2004 51.8863 42.8004 51.1863 43.3004C50.4863 43.8004 49.7697 44.0504 49.0363 44.0504C48.603 44.0504 48.2363 43.9337 47.9363 43.7004C47.6697 43.4671 47.5363 43.1337 47.5363 42.7004V20.2004C47.5363 19.6337 47.4363 19.2171 47.2363 18.9504C47.0363 18.6837 46.653 18.5504 46.0863 18.5504C42.2863 18.5504 39.3863 19.3004 37.3863 20.8004C35.3863 22.3004 34.3863 24.9671 34.3863 28.8004C34.3863 29.1671 34.1363 29.5171 33.6363 29.8504C33.1697 30.1504 32.7197 30.3004 32.2863 30.3004C31.8863 30.3004 31.6863 30.1337 31.6863 29.8004Z" fill="white"/>
<path d="M14.25 14.6504C17.6167 14.6504 19.9833 15.2504 21.35 16.4504C22.7167 17.6171 23.4 19.4671 23.4 22.0004V34.0004V41.5004C23.4 42.2004 23.05 42.8004 22.35 43.3004C21.65 43.8004 20.9333 44.0504 20.2 44.0504C19.7667 44.0504 19.4 43.9337 19.1 43.7004C18.8333 43.4671 18.7 43.1337 18.7 42.7004V35.2004V23.2004C18.7 21.9004 18.5 20.9171 18.1 20.2504C17.7333 19.5837 17.1333 19.1337 16.3 18.9004C15.5 18.6671 14.35 18.5504 12.85 18.5504H1.6C1.06667 18.5504 0.666667 18.4504 0.4 18.2504C0.133333 18.0171 0 17.7171 0 17.3504C0 16.7171 0.3 16.1171 0.9 15.5504C1.5 14.9504 2.2 14.6504 3 14.6504H14.25ZM8.3 32.0504C7.16667 32.0504 6.41667 32.1004 6.05 32.2004C5.68333 32.2671 5.46667 32.4504 5.4 32.7504C5.33333 33.0504 5.3 33.6837 5.3 34.6504C5.3 36.2837 5.48333 37.5337 5.85 38.4004C6.25 39.2337 6.88333 39.8171 7.75 40.1504C8.65 40.4837 9.93333 40.6504 11.6 40.6504L14.75 40.7004C15.9167 40.7004 16.7667 40.5337 17.3 40.2004C17.8333 39.8337 18.2 39.0837 18.4 37.9504C18.6333 36.7837 18.75 34.9504 18.75 32.4504C18.75 32.0837 18.9833 31.7504 19.45 31.4504C19.95 31.1171 20.4167 30.9504 20.85 30.9504C21.25 30.9504 21.45 31.1171 21.45 31.4504C21.45 34.4171 21.15 36.8337 20.55 38.7004C19.95 40.5671 18.8167 42.0004 17.15 43.0004C15.5167 44.0337 13.2 44.5504 10.2 44.5504C6.93333 44.5504 4.51667 43.8671 2.95 42.5004C1.38333 41.1337 0.6 38.9171 0.6 35.8504C0.6 34.3171 1.03333 32.9671 1.9 31.8004C2.8 30.6337 4 29.7337 5.5 29.1004C7.03333 28.4671 8.75 28.1504 10.65 28.1504H21.25C21.7833 28.1504 22.1833 28.2671 22.45 28.5004C22.7167 28.7004 22.85 28.9837 22.85 29.3504C22.85 29.9837 22.55 30.6004 21.95 31.2004C21.35 31.7671 20.65 32.0504 19.85 32.0504H8.3Z" fill="white"/>
</svg>
