<svg width="108" height="55" viewBox="0 0 108 55" fill="none" xmlns="http://www.w3.org/2000/svg">
<path d="M97.6203 45.3498C96.6536 48.0498 95.187 50.3165 93.2203 52.1498C91.287 54.0165 89.187 54.9498 86.9203 54.9498C85.7203 54.9498 84.587 54.7165 83.5203 54.2498C82.4536 53.8165 81.5203 53.2331 80.7203 52.4998C80.4536 52.2331 80.3203 51.9165 80.3203 51.5498C80.3203 50.9831 80.6536 50.4665 81.3203 49.9998C81.987 49.5331 82.687 49.2998 83.4203 49.2998C83.987 49.2998 84.4536 49.4665 84.8203 49.7998C85.3536 50.3331 85.8536 50.6665 86.3203 50.7998C86.787 50.9665 87.4536 51.0498 88.3203 51.0498C89.1203 51.0498 89.737 50.9331 90.1703 50.6998C90.637 50.4998 91.087 49.9998 91.5203 49.1998C91.987 48.3998 92.5203 47.1165 93.1203 45.3498C93.887 43.1831 97.137 33.8998 102.87 17.4998C103.07 16.8998 103.454 16.4331 104.02 16.0998C104.62 15.7665 105.22 15.5998 105.82 15.5998C106.287 15.5998 106.67 15.7165 106.97 15.9498C107.304 16.1498 107.47 16.4498 107.47 16.8498L107.37 17.4998L97.6203 45.3498ZM88.3703 31.4498L82.6703 18.5998L82.5703 18.0498C82.5703 17.4165 82.9203 16.8498 83.6203 16.3498C84.3203 15.8165 85.0203 15.5498 85.7203 15.5498C86.4203 15.5498 86.9036 15.8331 87.1703 16.3998L98.1703 42.0498C98.2703 42.1831 98.3203 42.3498 98.3203 42.5498C98.3203 43.1165 97.9703 43.6498 97.2703 44.1498C96.6036 44.6831 95.937 44.9498 95.2703 44.9498C94.6036 44.9498 94.1703 44.6831 93.9703 44.1498L88.3703 31.4498Z" fill="white"/>
<path d="M69.5441 41.0498C72.0775 41.0498 73.9441 40.2665 75.1441 38.6998C76.3775 37.0998 76.9941 34.3998 76.9941 30.5998C76.9941 28.0998 76.5941 25.9831 75.7941 24.2498C75.0275 22.4831 73.9775 21.1665 72.6441 20.2998C71.3108 19.3998 69.8108 18.9498 68.1441 18.9498C65.6108 18.9498 63.7275 19.7498 62.4941 21.3498C61.2941 22.9165 60.6941 25.5998 60.6941 29.3998C60.6941 31.8998 61.0775 34.0331 61.8441 35.7998C62.6441 37.5331 63.7108 38.8498 65.0441 39.7498C66.3775 40.6165 67.8775 41.0498 69.5441 41.0498ZM68.1441 44.9498C65.6441 44.9498 63.4775 44.3498 61.6441 43.1498C59.8108 41.9498 58.4108 40.2665 57.4441 38.0998C56.4775 35.9331 55.9941 33.4331 55.9941 30.5998C55.9941 27.7665 56.5275 25.1665 57.5941 22.7998C58.6608 20.4331 60.2108 18.5498 62.2441 17.1498C64.3108 15.7498 66.7441 15.0498 69.5441 15.0498C72.0441 15.0498 74.2108 15.6498 76.0441 16.8498C77.8775 18.0498 79.2775 19.7331 80.2441 21.8998C81.2108 24.0665 81.6941 26.5665 81.6941 29.3998C81.6941 32.2331 81.1608 34.8331 80.0941 37.1998C79.0275 39.5665 77.4608 41.4498 75.3941 42.8498C73.3608 44.2498 70.9441 44.9498 68.1441 44.9498Z" fill="white"/>
<path d="M33.8367 24.3998V41.8998C33.8367 42.5998 33.4867 43.1998 32.7867 43.6998C32.0867 44.1998 31.3701 44.4498 30.6367 44.4498C30.2034 44.4498 29.8367 44.3331 29.5367 44.0998C29.2701 43.8665 29.1367 43.5331 29.1367 43.0998V25.5998V3.0998C29.1367 2.39981 29.4701 1.79981 30.1367 1.2998C30.8367 0.799805 31.5534 0.549805 32.2867 0.549805C32.7534 0.549805 33.1201 0.666473 33.3867 0.899807C33.6867 1.09981 33.8367 1.43314 33.8367 1.89981V24.3998ZM31.0867 32.9498C31.0867 30.8165 31.3701 28.4165 31.9367 25.7498C32.5367 23.0498 33.8034 20.5665 35.7367 18.2998C37.6701 16.0331 40.5034 14.8998 44.2367 14.8998C46.3701 14.8998 48.1367 15.6331 49.5367 17.0998C50.9367 18.5331 51.6367 20.6498 51.6367 23.4498V41.8998C51.6367 42.5998 51.2867 43.1998 50.5867 43.6998C49.8867 44.1998 49.1701 44.4498 48.4367 44.4498C48.0034 44.4498 47.6367 44.3331 47.3367 44.0998C47.0701 43.8665 46.9367 43.5331 46.9367 43.0998V24.6498C46.9367 20.9498 45.5367 19.0998 42.7367 19.0998C40.9367 19.0998 39.3534 19.6998 37.9867 20.8998C36.6534 22.0998 35.6201 23.6831 34.8867 25.6498C34.1534 27.6165 33.7867 29.7165 33.7867 31.9498C33.7867 32.3165 33.5367 32.6665 33.0367 32.9998C32.5701 33.2998 32.1201 33.4498 31.6867 33.4498C31.2867 33.4498 31.0867 33.2831 31.0867 32.9498Z" fill="white"/>
<path d="M0.85 19.7998C2.28333 18.2998 4.03333 17.1331 6.1 16.2998C8.16667 15.4665 10.1833 15.0498 12.15 15.0498C15.3167 15.0498 17.8833 15.8665 19.85 17.4998C21.8167 19.0998 22.8 21.3998 22.8 24.3998V34.3998V41.8998C22.8 42.5998 22.45 43.1998 21.75 43.6998C21.05 44.1998 20.3333 44.4498 19.6 44.4498C19.1667 44.4498 18.8 44.3331 18.5 44.0998C18.2333 43.8665 18.1 43.5331 18.1 43.0998V35.5998V25.5998C18.1 23.4331 17.4333 21.7831 16.1 20.6498C14.7667 19.5165 12.9833 18.9498 10.75 18.9498C9.68333 18.9498 8.48333 19.2331 7.15 19.7998C5.81667 20.3331 4.78333 20.9665 4.05 21.6998C3.38333 22.3665 2.65 22.6998 1.85 22.6998C1.35 22.6998 0.933333 22.5665 0.6 22.2998C0.266667 22.0331 0.1 21.6998 0.1 21.2998C0.1 20.7998 0.35 20.2998 0.85 19.7998ZM18.7 33.9998C16.8333 33.1998 15.25 32.6498 13.95 32.3498C12.6833 32.0498 11.3 31.8998 9.8 31.8998C7.93333 31.8998 6.61667 32.1998 5.85 32.7998C5.08333 33.3998 4.7 34.3998 4.7 35.7998C4.7 37.1998 5.16667 38.4331 6.1 39.4998C7.03333 40.5331 8.25 41.0498 9.75 41.0498C10.6833 41.0498 11.6833 40.7831 12.75 40.2498C13.85 39.7165 14.9 38.8331 15.9 37.5998C16.9333 36.3331 17.7667 34.6831 18.4 32.6498C18.5333 32.2165 18.8 31.8831 19.2 31.6498C19.6 31.3831 20.0333 31.2498 20.5 31.2498C20.8333 31.2498 21.1 31.3331 21.3 31.4998C21.5333 31.6331 21.65 31.8498 21.65 32.1498L21.6 32.5498C20.5333 36.0831 18.8333 39.0331 16.5 41.3998C14.2 43.7665 11.4833 44.9498 8.35 44.9498C6.81667 44.9498 5.41667 44.6165 4.15 43.9498C2.88333 43.3165 1.86667 42.3998 1.1 41.1998C0.366667 39.9665 0 38.5665 0 36.9998C0 35.3665 0.5 33.8665 1.5 32.4998C2.53333 31.1331 3.88333 30.0665 5.55 29.2998C7.21667 28.4998 8.93333 28.0998 10.7 28.0998C12.5 28.0998 14.1833 28.2831 15.75 28.6498C17.3167 29.0165 19.1333 29.6331 21.2 30.4998C21.8 30.7665 22.1 31.1831 22.1 31.7498C22.1 32.3165 21.8333 32.8665 21.3 33.3998C20.7667 33.8998 20.1667 34.1498 19.5 34.1498C19.2333 34.1498 18.9667 34.0998 18.7 33.9998Z" fill="white"/>
</svg>
