<svg width="108" height="55" viewBox="0 0 108 55" fill="none" xmlns="http://www.w3.org/2000/svg">
<path d="M107.62 17.4998C101.687 34.0331 98.2203 43.7165 97.2203 46.5498C96.787 47.7165 96.0703 48.9165 95.0703 50.1498C94.1036 51.3831 92.937 52.3998 91.5703 53.1998C90.237 54.0331 88.8703 54.4498 87.4703 54.4498H83.9203C83.387 54.4498 82.987 54.3331 82.7203 54.0998C82.4536 53.8998 82.3203 53.6165 82.3203 53.2498C82.3203 52.6165 82.6203 51.9998 83.2203 51.3998C83.8203 50.8331 84.5203 50.5498 85.3203 50.5498H88.8703C89.837 50.5498 90.487 50.5165 90.8203 50.4498C91.1536 50.3831 91.387 50.2331 91.5203 49.9998C91.687 49.7998 91.8703 49.3498 92.0703 48.6498L92.7203 46.5498C98.6536 30.0165 102.12 20.3331 103.12 17.4998C103.32 16.8998 103.704 16.4331 104.27 16.0998C104.87 15.7665 105.47 15.5998 106.07 15.5998C106.537 15.5998 106.92 15.7165 107.22 15.9498C107.554 16.1498 107.72 16.4498 107.72 16.8498L107.62 17.4998ZM88.4703 31.3998L82.9203 18.5998C82.8536 18.3331 82.8203 18.1498 82.8203 18.0498C82.8203 17.4165 83.1703 16.8498 83.8703 16.3498C84.5703 15.8165 85.287 15.5498 86.0203 15.5498C86.7203 15.5498 87.187 15.8331 87.4203 16.3998L92.8203 29.1998L98.2203 42.0498C98.287 42.1498 98.3203 42.3165 98.3203 42.5498C98.3203 43.1165 97.987 43.6498 97.3203 44.1498C96.6536 44.6831 95.987 44.9498 95.3203 44.9498C94.6536 44.9498 94.2203 44.6831 94.0203 44.1498L88.4703 31.3998Z" fill="white"/>
<path d="M69.2941 41.0498C71.7941 41.0498 73.4941 40.8831 74.3941 40.5498C75.3275 40.1831 75.9441 39.2831 76.2441 37.8498C76.5775 36.4165 76.7441 33.8331 76.7441 30.0998C76.7441 27.0665 76.4941 24.7665 75.9941 23.1998C75.4941 21.5998 74.6775 20.4998 73.5441 19.8998C72.4441 19.2665 70.8941 18.9498 68.8941 18.9498C66.3941 18.9498 64.6775 19.1331 63.7441 19.4998C62.8441 19.8331 62.2275 20.7165 61.8941 22.1498C61.5941 23.5831 61.4441 26.1665 61.4441 29.8998C61.4441 32.9331 61.6941 35.2498 62.1941 36.8498C62.6941 38.4165 63.4941 39.5165 64.5941 40.1498C65.7275 40.7498 67.2941 41.0498 69.2941 41.0498ZM67.8941 44.9498C65.1275 44.9498 62.9275 44.4665 61.2941 43.4998C59.6941 42.5331 58.5275 41.0498 57.7941 39.0498C57.0941 37.0165 56.7441 34.3665 56.7441 31.0998C56.7441 27.4331 57.1775 24.4331 58.0441 22.0998C58.9441 19.7331 60.3775 17.9665 62.3441 16.7998C64.3441 15.6331 66.9941 15.0498 70.2941 15.0498C73.0608 15.0498 75.2441 15.5331 76.8441 16.4998C78.4775 17.4665 79.6441 18.9665 80.3441 20.9998C81.0775 22.9998 81.4441 25.6331 81.4441 28.8998C81.4441 32.5665 80.9941 35.5831 80.0941 37.9498C79.2275 40.2831 77.7941 42.0331 75.7941 43.1998C73.8275 44.3665 71.1941 44.9498 67.8941 44.9498Z" fill="white"/>
<path d="M34.0867 24.3998V41.8998C34.0867 42.5998 33.7367 43.1998 33.0367 43.6998C32.3367 44.1998 31.6201 44.4498 30.8867 44.4498C30.4534 44.4498 30.0867 44.3331 29.7867 44.0998C29.5201 43.8665 29.3867 43.5331 29.3867 43.0998V25.5998V3.0998C29.3867 2.39981 29.7201 1.79981 30.3867 1.2998C31.0867 0.799805 31.8034 0.549805 32.5367 0.549805C33.0034 0.549805 33.3701 0.666473 33.6367 0.899807C33.9367 1.09981 34.0867 1.43314 34.0867 1.89981V24.3998ZM31.3367 29.1998C31.3367 25.9331 31.6201 23.2998 32.1867 21.2998C32.7534 19.2998 33.8034 17.7665 35.3367 16.6998C36.9034 15.5998 39.1701 15.0498 42.1367 15.0498C45.3034 15.0498 47.7201 15.8831 49.3867 17.5498C51.0534 19.1831 51.8867 21.8165 51.8867 25.4498V41.8998C51.8867 42.5998 51.5367 43.1998 50.8367 43.6998C50.1367 44.1998 49.4201 44.4498 48.6867 44.4498C48.2534 44.4498 47.8867 44.3331 47.5867 44.0998C47.3201 43.8665 47.1867 43.5331 47.1867 43.0998V26.6498C47.1867 24.0498 46.7034 22.1165 45.7367 20.8498C44.8034 19.5831 43.1367 18.9498 40.7367 18.9498C39.8367 18.9498 39.2034 18.9331 38.8367 18.8998C38.4701 18.8665 37.9867 18.8498 37.3867 18.8498C36.4201 18.8498 35.7034 19.0665 35.2367 19.4998C34.8034 19.8998 34.4867 20.7498 34.2867 22.0498C34.1201 23.3165 34.0367 25.3665 34.0367 28.1998C34.0367 28.5665 33.7867 28.9165 33.2867 29.2498C32.8201 29.5498 32.3701 29.6998 31.9367 29.6998C31.5367 29.6998 31.3367 29.5331 31.3367 29.1998Z" fill="white"/>
<path d="M0 25.5998C0 22.1665 1.05 19.5498 3.15 17.7498C5.28333 15.9498 8.41667 15.0498 12.55 15.0498C15.15 15.0498 17.2167 15.3831 18.75 16.0498C20.2833 16.7165 21.3833 17.7665 22.05 19.1998C22.7167 20.6331 23.05 22.5331 23.05 24.8998V34.3998V41.8998C23.05 42.5998 22.7 43.1998 22 43.6998C21.3 44.1998 20.5833 44.4498 19.85 44.4498C19.4167 44.4498 19.05 44.3331 18.75 44.0998C18.4833 43.8665 18.35 43.5331 18.35 43.0998V35.5998V26.0998C18.35 24.1998 18.1333 22.7498 17.7 21.7498C17.3 20.7498 16.5833 20.0331 15.55 19.5998C14.55 19.1665 13.0833 18.9498 11.15 18.9498C8.85 18.9498 7.3 19.0498 6.5 19.2498C5.7 19.4165 5.2 19.8331 5 20.4998C4.8 21.1331 4.7 22.4331 4.7 24.3998C4.7 25.0998 4.35 25.6998 3.65 26.1998C2.95 26.6998 2.23333 26.9498 1.5 26.9498C1.06667 26.9498 0.7 26.8331 0.4 26.5998C0.133333 26.3665 0 26.0331 0 25.5998ZM23 25.7998C22.5333 28.2665 21.1167 29.9998 18.75 30.9998C16.4167 31.9665 13.5833 32.4498 10.25 32.4498C8.05 32.4498 6.65 32.4831 6.05 32.5498C5.48333 32.6165 5.15 32.7831 5.05 33.0498C4.98333 33.2831 4.95 33.9498 4.95 35.0498C4.95 36.5498 5.13333 37.7331 5.5 38.5998C5.86667 39.4331 6.5 40.0498 7.4 40.4498C8.3 40.8498 9.58333 41.0498 11.25 41.0498L14.4 41.0998C15.5667 41.0998 16.4167 40.9331 16.95 40.5998C17.4833 40.2331 17.85 39.4831 18.05 38.3498C18.2833 37.1831 18.4 35.3498 18.4 32.8498C18.4 32.4831 18.6333 32.1498 19.1 31.8498C19.6 31.5165 20.0667 31.3498 20.5 31.3498C20.9 31.3498 21.1 31.5165 21.1 31.8498C21.1 34.8498 20.8 37.2831 20.2 39.1498C19.6333 41.0165 18.5333 42.4498 16.9 43.4498C15.2667 44.4498 12.9167 44.9498 9.85 44.9498C6.58333 44.9498 4.16667 44.3165 2.6 43.0498C1.03333 41.7831 0.25 39.5165 0.25 36.2498C0.25 33.6498 1.25 31.7165 3.25 30.4498C5.25 29.1831 8.05 28.5498 11.65 28.5498C13.5833 28.5498 15.0167 28.4665 15.95 28.2998C16.8833 28.1331 17.5 27.9165 17.8 27.6498C18.1 27.3498 18.3 26.9331 18.4 26.3998C18.5333 25.7331 18.9167 25.1998 19.55 24.7998C20.1833 24.3665 20.8333 24.1498 21.5 24.1498C22 24.1498 22.4 24.2998 22.7 24.5998C23.0333 24.8665 23.1333 25.2665 23 25.7998Z" fill="white"/>
</svg>
