<svg width="108" height="55" viewBox="0 0 108 55" fill="none" xmlns="http://www.w3.org/2000/svg">
<path d="M107.37 17.3002C104.636 26.6335 101.37 35.9835 97.5695 45.3502C96.4362 48.1169 94.9695 50.3835 93.1695 52.1502C91.3695 53.9169 89.3695 54.8002 87.1695 54.8002C85.6695 54.8002 84.3029 54.4169 83.0695 53.6502C81.8362 52.8835 80.8029 51.8335 79.9695 50.5002C79.8362 50.3335 79.7695 50.1002 79.7695 49.8002C79.7695 49.3002 80.0862 48.8502 80.7195 48.4502C81.3195 48.0835 81.9862 47.9002 82.7195 47.9002C83.5862 47.9002 84.2029 48.2002 84.5695 48.8002C85.0029 49.5002 85.5362 50.0335 86.1695 50.4002C86.8029 50.8002 87.4362 51.0002 88.0695 51.0002C88.8695 51.0002 89.5029 50.8669 89.9695 50.6002C90.4362 50.3335 90.9029 49.8002 91.3695 49.0002C91.8695 48.2002 92.4695 46.9169 93.1695 45.1502C96.8029 36.2169 100.036 27.0002 102.87 17.5002C103.07 16.8669 103.453 16.3835 104.02 16.0502C104.62 15.6835 105.236 15.5002 105.87 15.5002C106.336 15.5002 106.72 15.6169 107.02 15.8502C107.32 16.0502 107.47 16.3335 107.47 16.7002C107.47 16.9335 107.436 17.1335 107.37 17.3002ZM93.9195 44.0502C90.8529 36.0502 87.1195 27.5502 82.7195 18.5502C82.6195 18.3502 82.5695 18.1502 82.5695 17.9502C82.5695 17.3169 82.9195 16.7502 83.6195 16.2502C84.3195 15.7169 85.0195 15.4502 85.7195 15.4502C86.4195 15.4502 86.8862 15.7169 87.1195 16.2502C90.4862 23.1502 94.1862 31.7169 98.2195 41.9502C98.2529 42.1169 98.2695 42.2835 98.2695 42.4502C98.2695 43.0502 97.9195 43.6002 97.2195 44.1002C96.5529 44.6002 95.8862 44.8502 95.2195 44.8502C94.5862 44.8502 94.1529 44.5835 93.9195 44.0502Z" fill="white"/>
<path d="M69.5441 40.9502C72.0775 40.9502 73.9441 40.1502 75.1441 38.5502C76.3775 36.9169 76.9941 34.4002 76.9941 31.0002C76.9941 28.4669 76.5775 26.2835 75.7441 24.4502C74.9441 22.6169 73.8608 21.2335 72.4941 20.3002C71.1608 19.3335 69.7108 18.8502 68.1441 18.8502C65.6108 18.8502 63.7275 19.6669 62.4941 21.3002C61.2941 22.9002 60.6941 25.4002 60.6941 28.8002C60.6941 31.3335 61.0941 33.5169 61.8941 35.3502C62.7275 37.1835 63.8108 38.5835 65.1441 39.5502C66.5108 40.4835 67.9775 40.9502 69.5441 40.9502ZM68.1441 44.8502C65.7775 44.8502 63.6608 44.2169 61.7941 42.9502C59.9608 41.6835 58.5275 39.9335 57.4941 37.7002C56.4941 35.4335 55.9941 32.8669 55.9941 30.0002C55.9941 27.4669 56.5108 25.0502 57.5441 22.7502C58.5775 20.4502 60.1108 18.5835 62.1441 17.1502C64.1775 15.6835 66.6441 14.9502 69.5441 14.9502C71.9108 14.9502 74.0108 15.5835 75.8441 16.8502C77.7108 18.1169 79.1441 19.8835 80.1441 22.1502C81.1775 24.3835 81.6941 26.9335 81.6941 29.8002C81.6941 32.3335 81.1775 34.7502 80.1441 37.0502C79.1108 39.3502 77.5775 41.2169 75.5441 42.6502C73.5108 44.1169 71.0441 44.8502 68.1441 44.8502Z" fill="white"/>
<path d="M33.8367 24.3002V41.8002C33.8367 42.5002 33.4867 43.1002 32.7867 43.6002C32.0867 44.1002 31.3701 44.3502 30.6367 44.3502C30.2034 44.3502 29.8367 44.2335 29.5367 44.0002C29.2701 43.7669 29.1367 43.4335 29.1367 43.0002V25.5002V3.0002C29.1367 2.3002 29.4701 1.7002 30.1367 1.2002C30.8367 0.700196 31.5534 0.450195 32.2867 0.450195C32.7534 0.450195 33.1201 0.566863 33.3867 0.800198C33.6867 1.0002 33.8367 1.33353 33.8367 1.8002V24.3002ZM31.0867 42.3502C31.0867 35.4502 31.9034 29.1335 33.5367 23.4002C35.1701 17.6669 38.7367 14.8002 44.2367 14.8002C46.3701 14.8002 48.1367 15.5335 49.5367 17.0002C50.9367 18.4335 51.6367 20.5502 51.6367 23.3502V41.8002C51.6367 42.5002 51.2867 43.1002 50.5867 43.6002C49.8867 44.1002 49.1701 44.3502 48.4367 44.3502C48.0034 44.3502 47.6367 44.2335 47.3367 44.0002C47.0701 43.7669 46.9367 43.4335 46.9367 43.0002V24.5502C46.9367 20.8502 45.5367 19.0002 42.7367 19.0002C41.1367 19.0002 39.6534 20.0502 38.2867 22.1502C36.9201 24.2502 35.8201 27.0335 34.9867 30.5002C34.1867 33.9335 33.7867 37.5502 33.7867 41.3502C33.7867 41.7169 33.5367 42.0669 33.0367 42.4002C32.5701 42.7002 32.1201 42.8502 31.6867 42.8502C31.2867 42.8502 31.0867 42.6835 31.0867 42.3502Z" fill="white"/>
<path d="M0.85 26.7502C0.383333 25.6835 0.15 24.6002 0.15 23.5002C0.15 21.8669 0.7 20.4002 1.8 19.1002C2.9 17.7669 4.36667 16.7502 6.2 16.0502C8.06667 15.3169 10.05 14.9502 12.15 14.9502C15.3167 14.9502 17.8833 15.7669 19.85 17.4002C21.8167 19.0002 22.8 21.3002 22.8 24.3002V34.3002V41.8002C22.8 42.5002 22.45 43.1002 21.75 43.6002C21.05 44.1002 20.3333 44.3502 19.6 44.3502C19.1667 44.3502 18.8 44.2335 18.5 44.0002C18.2333 43.7669 18.1 43.4335 18.1 43.0002V35.5002V25.5002C18.1 23.3335 17.4333 21.6835 16.1 20.5502C14.7667 19.4169 12.9833 18.8502 10.75 18.8502C8.68333 18.8502 7.15 19.1002 6.15 19.6002C5.15 20.0669 4.65 20.8335 4.65 21.9002C4.65 22.5669 4.88333 23.4502 5.35 24.5502C5.41667 24.7502 5.45 24.9335 5.45 25.1002C5.45 25.7335 5.1 26.3169 4.4 26.8502C3.7 27.3502 3 27.6002 2.3 27.6002C1.56667 27.6002 1.08333 27.3169 0.85 26.7502ZM22.6 25.2502C22.6 27.4835 21.6833 29.1335 19.85 30.2002C18.05 31.2669 15.7167 31.8002 12.85 31.8002C7.41667 31.8002 4.7 33.3169 4.7 36.3502C4.7 37.5502 5.18333 38.6169 6.15 39.5502C7.15 40.4835 8.35 40.9502 9.75 40.9502C10.4167 40.9502 11.45 40.4002 12.85 39.3002C14.25 38.1669 15.5167 36.5169 16.65 34.3502C17.7833 32.1502 18.35 29.5002 18.35 26.4002C18.35 25.9002 18.5833 25.4835 19.05 25.1502C19.5167 24.8169 20.0167 24.6502 20.55 24.6502C21.2833 24.6502 21.65 24.9669 21.65 25.6002C21.65 28.7002 21.0667 31.7502 19.9 34.7502C18.7333 37.7169 17.1333 40.1502 15.1 42.0502C13.0667 43.9169 10.8167 44.8502 8.35 44.8502C6.78333 44.8502 5.35 44.5169 4.05 43.8502C2.78333 43.1835 1.78333 42.3002 1.05 41.2002C0.35 40.0669 0 38.8502 0 37.5502C0 34.4169 1.3 32.0502 3.9 30.4502C6.5 28.8169 9.78333 28.0002 13.75 28.0002C15.3833 28.0002 16.5 27.9502 17.1 27.8502C17.7333 27.7169 18.0833 27.5502 18.15 27.3502C18.25 27.1502 18.3 26.7169 18.3 26.0502C18.3 25.3835 18.5667 24.8502 19.1 24.4502C19.6667 24.0169 20.2833 23.8002 20.95 23.8002C21.4167 23.8002 21.8 23.9335 22.1 24.2002C22.4333 24.4335 22.6 24.7835 22.6 25.2502Z" fill="white"/>
</svg>
