<svg width="108" height="55" viewBox="0 0 108 55" fill="none" xmlns="http://www.w3.org/2000/svg">
<path d="M107.62 17.3504C101.687 33.8837 98.2203 43.5671 97.2203 46.4004C96.787 47.5671 96.0703 48.7671 95.0703 50.0004C94.1036 51.2337 92.937 52.2504 91.5703 53.0504C90.237 53.8837 88.8703 54.3004 87.4703 54.3004H83.9203C83.387 54.3004 82.987 54.1837 82.7203 53.9504C82.4536 53.7504 82.3203 53.4671 82.3203 53.1004C82.3203 52.4671 82.6203 51.8504 83.2203 51.2504C83.8203 50.6837 84.5203 50.4004 85.3203 50.4004H88.8703C89.837 50.4004 90.487 50.3671 90.8203 50.3004C91.1536 50.2337 91.387 50.0837 91.5203 49.8504C91.687 49.6504 91.8703 49.2004 92.0703 48.5004L92.7203 46.4004C98.6536 29.8671 102.12 20.1837 103.12 17.3504C103.32 16.7504 103.704 16.2837 104.27 15.9504C104.87 15.6171 105.47 15.4504 106.07 15.4504C106.537 15.4504 106.92 15.5671 107.22 15.8004C107.554 16.0004 107.72 16.3004 107.72 16.7004L107.62 17.3504ZM88.4703 31.2504L82.9203 18.4504C82.8536 18.1837 82.8203 18.0004 82.8203 17.9004C82.8203 17.2671 83.1703 16.7004 83.8703 16.2004C84.5703 15.6671 85.287 15.4004 86.0203 15.4004C86.7203 15.4004 87.187 15.6837 87.4203 16.2504L92.8203 29.0504L98.2203 41.9004C98.287 42.0004 98.3203 42.1671 98.3203 42.4004C98.3203 42.9671 97.987 43.5004 97.3203 44.0004C96.6536 44.5337 95.987 44.8004 95.3203 44.8004C94.6536 44.8004 94.2203 44.5337 94.0203 44.0004L88.4703 31.2504Z" fill="white"/>
<path d="M69.2941 40.9004C71.7941 40.9004 73.4941 40.7337 74.3941 40.4004C75.3275 40.0337 75.9441 39.1337 76.2441 37.7004C76.5775 36.2671 76.7441 33.6837 76.7441 29.9504C76.7441 26.9171 76.4941 24.6171 75.9941 23.0504C75.4941 21.4504 74.6775 20.3504 73.5441 19.7504C72.4441 19.1171 70.8941 18.8004 68.8941 18.8004C66.3941 18.8004 64.6775 18.9837 63.7441 19.3504C62.8441 19.6837 62.2275 20.5671 61.8941 22.0004C61.5941 23.4337 61.4441 26.0171 61.4441 29.7504C61.4441 32.7837 61.6941 35.1004 62.1941 36.7004C62.6941 38.2671 63.4941 39.3671 64.5941 40.0004C65.7275 40.6004 67.2941 40.9004 69.2941 40.9004ZM67.8941 44.8004C65.1275 44.8004 62.9275 44.3171 61.2941 43.3504C59.6941 42.3837 58.5275 40.9004 57.7941 38.9004C57.0941 36.8671 56.7441 34.2171 56.7441 30.9504C56.7441 27.2837 57.1775 24.2837 58.0441 21.9504C58.9441 19.5837 60.3775 17.8171 62.3441 16.6504C64.3441 15.4837 66.9941 14.9004 70.2941 14.9004C73.0608 14.9004 75.2441 15.3837 76.8441 16.3504C78.4775 17.3171 79.6441 18.8171 80.3441 20.8504C81.0775 22.8504 81.4441 25.4837 81.4441 28.7504C81.4441 32.4171 80.9941 35.4337 80.0941 37.8004C79.2275 40.1337 77.7941 41.8837 75.7941 43.0504C73.8275 44.2171 71.1941 44.8004 67.8941 44.8004Z" fill="white"/>
<path d="M34.0867 24.2504V41.7504C34.0867 42.4504 33.7367 43.0504 33.0367 43.5504C32.3367 44.0504 31.6201 44.3004 30.8867 44.3004C30.4534 44.3004 30.0867 44.1837 29.7867 43.9504C29.5201 43.7171 29.3867 43.3837 29.3867 42.9504V25.4504V2.95039C29.3867 2.25039 29.7201 1.65039 30.3867 1.15039C31.0867 0.650391 31.8034 0.400391 32.5367 0.400391C33.0034 0.400391 33.3701 0.517059 33.6367 0.750393C33.9367 0.950392 34.0867 1.28372 34.0867 1.75039V24.2504ZM31.3367 29.0504C31.3367 25.7837 31.6201 23.1504 32.1867 21.1504C32.7534 19.1504 33.8034 17.6171 35.3367 16.5504C36.9034 15.4504 39.1701 14.9004 42.1367 14.9004C45.3034 14.9004 47.7201 15.7337 49.3867 17.4004C51.0534 19.0337 51.8867 21.6671 51.8867 25.3004V41.7504C51.8867 42.4504 51.5367 43.0504 50.8367 43.5504C50.1367 44.0504 49.4201 44.3004 48.6867 44.3004C48.2534 44.3004 47.8867 44.1837 47.5867 43.9504C47.3201 43.7171 47.1867 43.3837 47.1867 42.9504V26.5004C47.1867 23.9004 46.7034 21.9671 45.7367 20.7004C44.8034 19.4337 43.1367 18.8004 40.7367 18.8004C39.8367 18.8004 39.2034 18.7837 38.8367 18.7504C38.4701 18.7171 37.9867 18.7004 37.3867 18.7004C36.4201 18.7004 35.7034 18.9171 35.2367 19.3504C34.8034 19.7504 34.4867 20.6004 34.2867 21.9004C34.1201 23.1671 34.0367 25.2171 34.0367 28.0504C34.0367 28.4171 33.7867 28.7671 33.2867 29.1004C32.8201 29.4004 32.3701 29.5504 31.9367 29.5504C31.5367 29.5504 31.3367 29.3837 31.3367 29.0504Z" fill="white"/>
<path d="M0 25.4504C0 22.0171 1.05 19.4004 3.15 17.6004C5.28333 15.8004 8.41667 14.9004 12.55 14.9004C15.15 14.9004 17.2167 15.2337 18.75 15.9004C20.2833 16.5671 21.3833 17.6171 22.05 19.0504C22.7167 20.4837 23.05 22.3837 23.05 24.7504V34.2504V41.7504C23.05 42.4504 22.7 43.0504 22 43.5504C21.3 44.0504 20.5833 44.3004 19.85 44.3004C19.4167 44.3004 19.05 44.1837 18.75 43.9504C18.4833 43.7171 18.35 43.3837 18.35 42.9504V35.4504V25.9504C18.35 24.0504 18.1333 22.6004 17.7 21.6004C17.3 20.6004 16.5833 19.8837 15.55 19.4504C14.55 19.0171 13.0833 18.8004 11.15 18.8004C8.85 18.8004 7.3 18.9004 6.5 19.1004C5.7 19.2671 5.2 19.6837 5 20.3504C4.8 20.9837 4.7 22.2837 4.7 24.2504C4.7 24.9504 4.35 25.5504 3.65 26.0504C2.95 26.5504 2.23333 26.8004 1.5 26.8004C1.06667 26.8004 0.7 26.6837 0.4 26.4504C0.133333 26.2171 0 25.8837 0 25.4504ZM7.95 32.3004C6.81667 32.3004 6.06667 32.3504 5.7 32.4504C5.33333 32.5171 5.11667 32.7004 5.05 33.0004C4.98333 33.3004 4.95 33.9337 4.95 34.9004C4.95 36.5337 5.13333 37.7837 5.5 38.6504C5.9 39.4837 6.53333 40.0671 7.4 40.4004C8.3 40.7337 9.58333 40.9004 11.25 40.9004L14.4 40.9504C15.5667 40.9504 16.4167 40.7837 16.95 40.4504C17.4833 40.0837 17.85 39.3337 18.05 38.2004C18.2833 37.0337 18.4 35.2004 18.4 32.7004C18.4 32.3337 18.6333 32.0004 19.1 31.7004C19.6 31.3671 20.0667 31.2004 20.5 31.2004C20.9 31.2004 21.1 31.3671 21.1 31.7004C21.1 34.6671 20.8 37.0837 20.2 38.9504C19.6 40.8171 18.4667 42.2504 16.8 43.2504C15.1667 44.2837 12.85 44.8004 9.85 44.8004C6.58333 44.8004 4.16667 44.1171 2.6 42.7504C1.03333 41.3837 0.25 39.1671 0.25 36.1004C0.25 34.5671 0.683333 33.2171 1.55 32.0504C2.45 30.8837 3.65 29.9837 5.15 29.3504C6.68333 28.7171 8.4 28.4004 10.3 28.4004H20.9C21.4333 28.4004 21.8333 28.5171 22.1 28.7504C22.3667 28.9504 22.5 29.2337 22.5 29.6004C22.5 30.2337 22.2 30.8504 21.6 31.4504C21 32.0171 20.3 32.3004 19.5 32.3004H7.95Z" fill="white"/>
</svg>
