<svg width="108" height="55" viewBox="0 0 108 55" fill="none" xmlns="http://www.w3.org/2000/svg">
<path d="M97.8703 44.8C96.9036 47.5 95.437 49.7667 93.4703 51.6C91.537 53.4667 89.437 54.4 87.1703 54.4C85.9703 54.4 84.837 54.1667 83.7703 53.7C82.7036 53.2667 81.7703 52.6833 80.9703 51.95C80.7036 51.6833 80.5703 51.3667 80.5703 51C80.5703 50.4333 80.9036 49.9167 81.5703 49.45C82.237 48.9833 82.937 48.75 83.6703 48.75C84.237 48.75 84.7036 48.9167 85.0703 49.25C85.6036 49.7833 86.1036 50.1167 86.5703 50.25C87.037 50.4167 87.7036 50.5 88.5703 50.5C89.3703 50.5 89.987 50.3833 90.4203 50.15C90.887 49.95 91.337 49.45 91.7703 48.65C92.237 47.85 92.7703 46.5667 93.3703 44.8C94.137 42.6333 97.387 33.35 103.12 16.95C103.32 16.35 103.704 15.8833 104.27 15.55C104.87 15.2167 105.47 15.05 106.07 15.05C106.537 15.05 106.92 15.1667 107.22 15.4C107.554 15.6 107.72 15.9 107.72 16.3L107.62 16.95L97.8703 44.8ZM88.6203 30.9L82.9203 18.05L82.8203 17.5C82.8203 16.8667 83.1703 16.3 83.8703 15.8C84.5703 15.2667 85.2703 15 85.9703 15C86.6703 15 87.1536 15.2833 87.4203 15.85L98.4203 41.5C98.5203 41.6333 98.5703 41.8 98.5703 42C98.5703 42.5667 98.2203 43.1 97.5203 43.6C96.8536 44.1333 96.187 44.4 95.5203 44.4C94.8536 44.4 94.4203 44.1333 94.2203 43.6L88.6203 30.9Z" fill="white"/>
<path d="M69.7941 40.5C72.3275 40.5 74.1941 39.7167 75.3941 38.15C76.6275 36.55 77.2441 33.85 77.2441 30.05C77.2441 27.55 76.8441 25.4333 76.0441 23.7C75.2775 21.9333 74.2275 20.6167 72.8941 19.75C71.5608 18.85 70.0608 18.4 68.3941 18.4C65.8608 18.4 63.9775 19.2 62.7441 20.8C61.5441 22.3667 60.9441 25.05 60.9441 28.85C60.9441 31.35 61.3275 33.4833 62.0941 35.25C62.8941 36.9833 63.9608 38.3 65.2941 39.2C66.6275 40.0667 68.1275 40.5 69.7941 40.5ZM68.3941 44.4C65.8941 44.4 63.7275 43.8 61.8941 42.6C60.0608 41.4 58.6608 39.7167 57.6941 37.55C56.7275 35.3833 56.2441 32.8833 56.2441 30.05C56.2441 27.2167 56.7775 24.6167 57.8441 22.25C58.9108 19.8833 60.4608 18 62.4941 16.6C64.5608 15.2 66.9941 14.5 69.7941 14.5C72.2941 14.5 74.4608 15.1 76.2941 16.3C78.1275 17.5 79.5275 19.1833 80.4941 21.35C81.4608 23.5167 81.9441 26.0167 81.9441 28.85C81.9441 31.6833 81.4108 34.2833 80.3441 36.65C79.2775 39.0167 77.7108 40.9 75.6441 42.3C73.6108 43.7 71.1941 44.4 68.3941 44.4Z" fill="white"/>
<path d="M34.0867 23.85V41.35C34.0867 42.05 33.7367 42.65 33.0367 43.15C32.3367 43.65 31.6201 43.9 30.8867 43.9C30.4534 43.9 30.0867 43.7833 29.7867 43.55C29.5201 43.3167 29.3867 42.9833 29.3867 42.55V25.05V2.55C29.3867 1.85 29.7201 1.25 30.3867 0.75C31.0867 0.25 31.8034 0 32.5367 0C33.0034 0 33.3701 0.116668 33.6367 0.350002C33.9367 0.550002 34.0867 0.883334 34.0867 1.35V23.85ZM31.3367 29.65C31.3367 25.2833 32.2201 21.6667 33.9867 18.8C35.7534 15.9333 38.6367 14.5 42.6367 14.5C45.4034 14.5 47.6367 15.35 49.3367 17.05C51.0367 18.7167 51.8867 21.1667 51.8867 24.4V41.35C51.8867 42.05 51.5367 42.65 50.8367 43.15C50.1367 43.65 49.4201 43.9 48.6867 43.9C48.2534 43.9 47.8867 43.7833 47.5867 43.55C47.3201 43.3167 47.1867 42.9833 47.1867 42.55V25.6C47.1867 23.4667 46.7034 21.7333 45.7367 20.4C44.8034 19.0667 43.3034 18.4 41.2367 18.4C39.2367 18.4 37.5367 19.1 36.1367 20.5C34.7367 21.9 34.0367 24.6167 34.0367 28.65C34.0367 29.0167 33.7867 29.3667 33.2867 29.7C32.8201 30 32.3701 30.15 31.9367 30.15C31.5367 30.15 31.3367 29.9833 31.3367 29.65Z" fill="white"/>
<path d="M0 25.05C0 22.7833 0.583333 20.85 1.75 19.25C2.91667 17.65 4.45 16.4667 6.35 15.7C8.28333 14.9 10.3667 14.5 12.6 14.5C15.8 14.5 18.35 15.3 20.25 16.9C22.15 18.5 23.1 20.8167 23.1 23.85V33.85V41.35C23.1 42.05 22.75 42.65 22.05 43.15C21.35 43.65 20.6333 43.9 19.9 43.9C19.4667 43.9 19.1 43.7833 18.8 43.55C18.5333 43.3167 18.4 42.9833 18.4 42.55V35.05V25.05C18.4 22.8833 17.7667 21.2333 16.5 20.1C15.2333 18.9667 13.4667 18.4 11.2 18.4C9.06667 18.4 7.45 18.8667 6.35 19.8C5.25 20.7333 4.7 22.0833 4.7 23.85C4.7 24.55 4.35 25.15 3.65 25.65C2.95 26.15 2.23333 26.4 1.5 26.4C1.06667 26.4 0.7 26.2833 0.4 26.05C0.133333 25.8167 0 25.4833 0 25.05ZM9.4 31.9C7.76667 31.9 6.61667 32.1667 5.95 32.7C5.28333 33.2333 4.95 34.1667 4.95 35.5C4.95 36.9667 5.53333 38.1667 6.7 39.1C7.86667 40.0333 9.31667 40.5 11.05 40.5C13.1167 40.5 14.8667 39.85 16.3 38.55C17.7333 37.25 18.45 34.6667 18.45 30.8C18.45 30.4333 18.6833 30.1 19.15 29.8C19.65 29.4667 20.1167 29.3 20.55 29.3C20.95 29.3 21.15 29.4667 21.15 29.8C21.15 33.9 20.2167 37.3667 18.35 40.2C16.5167 43 13.6167 44.4 9.65 44.4C7.81667 44.4 6.18333 44.0667 4.75 43.4C3.31667 42.7333 2.2 41.8167 1.4 40.65C0.633334 39.45 0.25 38.1333 0.25 36.7C0.25 35.1667 0.733333 33.7333 1.7 32.4C2.7 31.0333 4.01667 29.9667 5.65 29.2C7.28333 28.4 9 28 10.8 28H21.35C21.8833 28 22.2833 28.1167 22.55 28.35C22.8167 28.55 22.95 28.8333 22.95 29.2C22.95 29.8333 22.65 30.45 22.05 31.05C21.45 31.6167 20.75 31.9 19.95 31.9H9.4Z" fill="white"/>
</svg>
