<svg width="108" height="56" viewBox="0 0 108 56" fill="none" xmlns="http://www.w3.org/2000/svg">
<path d="M103.421 29.1002C102.388 32.0669 101.288 35.1669 100.121 38.4002C98.9878 41.6335 97.8211 45.0169 96.6211 48.5502C96.1878 49.7169 95.4711 50.8169 94.4711 51.8502C93.5044 52.9169 92.4211 53.7669 91.2211 54.4002C90.0211 55.0335 88.9211 55.3502 87.9211 55.3502L84.1211 55.3002C83.7878 55.2669 83.3211 55.2502 82.7211 55.2502C82.1211 55.2502 81.6711 55.1169 81.3711 54.8502C81.0378 54.6169 80.8711 54.3002 80.8711 53.9002C80.8711 53.3335 81.1544 52.8002 81.7211 52.3002C82.2878 51.8002 82.9878 51.5502 83.8211 51.5502C84.5544 51.5502 85.1378 51.5335 85.5711 51.5002L89.8711 51.4502C90.3378 51.4502 90.6544 51.4002 90.8211 51.3002C91.0211 51.2002 91.1878 50.9835 91.3211 50.6502C91.4878 50.3169 91.7544 49.6169 92.1211 48.5502L98.9711 29.1002C101.104 23.0669 102.404 19.3335 102.871 17.9002C103.071 17.3002 103.454 16.8335 104.021 16.5002C104.621 16.1669 105.221 16.0002 105.821 16.0002C106.288 16.0002 106.671 16.1169 106.971 16.3502C107.304 16.5502 107.471 16.8502 107.471 17.2502L107.371 17.9002L103.421 29.1002ZM88.3711 31.8502L82.6711 19.0002L82.5711 18.4502C82.5711 17.8169 82.9211 17.2502 83.6211 16.7502C84.3211 16.2169 85.0211 15.9502 85.7211 15.9502C86.4211 15.9502 86.9044 16.2335 87.1711 16.8002L98.1711 42.4502C98.2711 42.5835 98.3211 42.7502 98.3211 42.9502C98.3211 43.5169 97.9711 44.0502 97.2711 44.5502C96.6044 45.0835 95.9378 45.3502 95.2711 45.3502C94.6044 45.3502 94.1711 45.0835 93.9711 44.5502L88.3711 31.8502Z" fill="white"/>
<path d="M69.5441 41.4502C72.0775 41.4502 73.9441 40.6669 75.1441 39.1002C76.3775 37.5002 76.9941 34.8002 76.9941 31.0002C76.9941 28.5002 76.5941 26.3835 75.7941 24.6502C75.0275 22.8835 73.9775 21.5669 72.6441 20.7002C71.3108 19.8002 69.8108 19.3502 68.1441 19.3502C65.6108 19.3502 63.7275 20.1502 62.4941 21.7502C61.2941 23.3169 60.6941 26.0002 60.6941 29.8002C60.6941 32.3002 61.0775 34.4335 61.8441 36.2002C62.6441 37.9335 63.7108 39.2502 65.0441 40.1502C66.3775 41.0169 67.8775 41.4502 69.5441 41.4502ZM68.1441 45.3502C65.6441 45.3502 63.4775 44.7502 61.6441 43.5502C59.8108 42.3502 58.4108 40.6669 57.4441 38.5002C56.4775 36.3335 55.9941 33.8335 55.9941 31.0002C55.9941 28.1669 56.5275 25.5669 57.5941 23.2002C58.6608 20.8335 60.2108 18.9502 62.2441 17.5502C64.3108 16.1502 66.7441 15.4502 69.5441 15.4502C72.0441 15.4502 74.2108 16.0502 76.0441 17.2502C77.8775 18.4502 79.2775 20.1335 80.2441 22.3002C81.2108 24.4669 81.6941 26.9669 81.6941 29.8002C81.6941 32.6335 81.1608 35.2335 80.0941 37.6002C79.0275 39.9669 77.4608 41.8502 75.3941 43.2502C73.3608 44.6502 70.9441 45.3502 68.1441 45.3502Z" fill="white"/>
<path d="M33.8367 24.8002V42.3002C33.8367 43.0002 33.4867 43.6002 32.7867 44.1002C32.0867 44.6002 31.3701 44.8502 30.6367 44.8502C30.2034 44.8502 29.8367 44.7335 29.5367 44.5002C29.2701 44.2669 29.1367 43.9335 29.1367 43.5002V26.0002V3.5002C29.1367 2.8002 29.4701 2.2002 30.1367 1.7002C30.8367 1.2002 31.5534 0.950195 32.2867 0.950195C32.7534 0.950195 33.1201 1.06686 33.3867 1.3002C33.6867 1.5002 33.8367 1.83353 33.8367 2.3002V24.8002ZM31.0867 33.3502C31.0867 28.2169 32.1367 23.9335 34.2367 20.5002C36.3367 17.0335 39.6701 15.3002 44.2367 15.3002C46.7701 15.3002 48.6367 15.9502 49.8367 17.2502C51.0367 18.5169 51.6367 20.7169 51.6367 23.8502V42.3002C51.6367 43.0002 51.2867 43.6002 50.5867 44.1002C49.8867 44.6002 49.1701 44.8502 48.4367 44.8502C48.0034 44.8502 47.6367 44.7335 47.3367 44.5002C47.0701 44.2669 46.9367 43.9335 46.9367 43.5002V25.0502C46.9367 23.5169 46.8367 22.3835 46.6367 21.6502C46.4701 20.8835 46.0867 20.3335 45.4867 20.0002C44.9201 19.6669 44.0034 19.5002 42.7367 19.5002C40.7034 19.5002 39.0534 19.8169 37.7867 20.4502C36.5201 21.0502 35.5367 22.2835 34.8367 24.1502C34.1367 26.0169 33.7867 28.7502 33.7867 32.3502C33.7867 32.7169 33.5367 33.0669 33.0367 33.4002C32.5701 33.7002 32.1201 33.8502 31.6867 33.8502C31.2867 33.8502 31.0867 33.6835 31.0867 33.3502Z" fill="white"/>
<path d="M14 15.4502C17.1333 15.4502 19.3833 16.0502 20.75 17.2502C22.1167 18.4169 22.8 20.2835 22.8 22.8502V34.8002V42.3002C22.8 43.0002 22.45 43.6002 21.75 44.1002C21.05 44.6002 20.3333 44.8502 19.6 44.8502C19.1667 44.8502 18.8 44.7335 18.5 44.5002C18.2333 44.2669 18.1 43.9335 18.1 43.5002V36.0002V24.0502C18.1 22.7502 17.9167 21.7669 17.55 21.1002C17.1833 20.4335 16.6 19.9835 15.8 19.7502C15.0333 19.4835 13.9667 19.3502 12.6 19.3502H1.7C1.16667 19.3502 0.766667 19.2502 0.5 19.0502C0.233333 18.8169 0.1 18.5169 0.1 18.1502C0.1 17.5169 0.4 16.9169 1 16.3502C1.6 15.7502 2.3 15.4502 3.1 15.4502H14ZM18.7 34.4002C16.8333 33.6002 15.25 33.0502 13.95 32.7502C12.6833 32.4502 11.3 32.3002 9.8 32.3002C7.93333 32.3002 6.61667 32.6002 5.85 33.2002C5.08333 33.8002 4.7 34.8002 4.7 36.2002C4.7 37.6002 5.16667 38.8335 6.1 39.9002C7.03333 40.9335 8.25 41.4502 9.75 41.4502C10.6833 41.4502 11.6833 41.1835 12.75 40.6502C13.85 40.1169 14.9 39.2335 15.9 38.0002C16.9333 36.7335 17.7667 35.0835 18.4 33.0502C18.5333 32.6169 18.8 32.2835 19.2 32.0502C19.6 31.7835 20.0333 31.6502 20.5 31.6502C20.8333 31.6502 21.1 31.7335 21.3 31.9002C21.5333 32.0335 21.65 32.2502 21.65 32.5502L21.6 32.9502C20.5333 36.4835 18.8333 39.4335 16.5 41.8002C14.2 44.1669 11.4833 45.3502 8.35 45.3502C6.81667 45.3502 5.41667 45.0169 4.15 44.3502C2.88333 43.7169 1.86667 42.8002 1.1 41.6002C0.366667 40.3669 0 38.9669 0 37.4002C0 35.7669 0.5 34.2669 1.5 32.9002C2.53333 31.5335 3.88333 30.4669 5.55 29.7002C7.21667 28.9002 8.93333 28.5002 10.7 28.5002C12.5 28.5002 14.1833 28.6835 15.75 29.0502C17.3167 29.4169 19.1333 30.0335 21.2 30.9002C21.8 31.1669 22.1 31.5835 22.1 32.1502C22.1 32.7169 21.8333 33.2669 21.3 33.8002C20.7667 34.3002 20.1667 34.5502 19.5 34.5502C19.2333 34.5502 18.9667 34.5002 18.7 34.4002Z" fill="white"/>
</svg>
