<svg width="108" height="55" viewBox="0 0 108 55" fill="none" xmlns="http://www.w3.org/2000/svg">
<path d="M107.37 17.1996C104.403 26.8996 101.036 36.3663 97.2695 45.5996C96.2695 48.0329 94.8695 50.0663 93.0695 51.6996C91.3029 53.3663 89.2695 54.1996 86.9695 54.1996C85.3362 54.1996 83.9695 53.5163 82.8695 52.1496C81.8029 50.8163 81.2695 49.1329 81.2695 47.0996C81.2695 46.3329 81.3362 45.6329 81.4695 44.9996C81.6029 44.3996 81.9695 43.9163 82.5695 43.5496C83.1362 43.2163 83.7695 43.0496 84.4695 43.0496C85.0695 43.0496 85.5529 43.1829 85.9195 43.4496C86.2862 43.7496 86.4029 44.1663 86.2695 44.6996C86.1029 45.4663 86.0195 46.2496 86.0195 47.0496C86.0195 47.9496 86.1362 48.6329 86.3695 49.0996C86.6362 49.5996 86.9029 49.9329 87.1695 50.0996C87.4695 50.2996 87.7029 50.3996 87.8695 50.3996C89.8362 50.3996 91.5029 48.7329 92.8695 45.3996C96.9029 35.4663 100.236 26.1329 102.87 17.3996C103.07 16.7663 103.453 16.2663 104.02 15.8996C104.586 15.5329 105.186 15.3496 105.82 15.3496C106.286 15.3496 106.67 15.4663 106.97 15.6996C107.303 15.8996 107.47 16.2163 107.47 16.6496L107.37 17.1996ZM93.7195 43.9496C90.5862 35.6496 86.9195 27.1496 82.7195 18.4496C82.6195 18.2496 82.5695 18.0496 82.5695 17.8496C82.5695 17.2163 82.9195 16.6496 83.6195 16.1496C84.3195 15.6163 85.0195 15.3496 85.7195 15.3496C86.4195 15.3496 86.8862 15.6163 87.1195 16.1496C90.2862 22.6829 93.9195 31.2496 98.0195 41.8496C98.0529 42.0163 98.0695 42.1829 98.0695 42.3496C98.0695 42.9496 97.7195 43.4996 97.0195 43.9996C96.3529 44.4996 95.6862 44.7496 95.0195 44.7496C94.3862 44.7496 93.9529 44.4829 93.7195 43.9496Z" fill="white"/>
<path d="M69.0441 40.8496C71.5108 40.8496 73.2108 40.6496 74.1441 40.2496C75.1108 39.8496 75.7441 38.9829 76.0441 37.6496C76.3441 36.2829 76.4941 33.8663 76.4941 30.3996C76.4941 27.3329 76.2108 24.9663 75.6441 23.2996C75.1108 21.5996 74.2775 20.4163 73.1441 19.7496C72.0441 19.0829 70.5441 18.7496 68.6441 18.7496C66.1775 18.7496 64.4608 18.9496 63.4941 19.3496C62.5608 19.7496 61.9441 20.6329 61.6441 21.9996C61.3441 23.3329 61.1941 25.7329 61.1941 29.1996C61.1941 32.2663 61.4608 34.6496 61.9941 36.3496C62.5608 38.0163 63.3941 39.1829 64.4941 39.8496C65.6275 40.5163 67.1441 40.8496 69.0441 40.8496ZM67.6441 44.7496C63.6441 44.7496 60.7775 43.5996 59.0441 41.2996C57.3441 38.9663 56.4941 35.3329 56.4941 30.3996C56.4941 25.2663 57.5108 21.3996 59.5441 18.7996C61.5775 16.1663 65.0775 14.8496 70.0441 14.8496C74.0441 14.8496 76.8941 16.0163 78.5941 18.3496C80.3275 20.6496 81.1941 24.2663 81.1941 29.1996C81.1941 34.3329 80.1775 38.2163 78.1441 40.8496C76.1108 43.4496 72.6108 44.7496 67.6441 44.7496Z" fill="white"/>
<path d="M33.8367 24.1996V41.6996C33.8367 42.3996 33.4867 42.9996 32.7867 43.4996C32.0867 43.9996 31.3701 44.2496 30.6367 44.2496C30.2034 44.2496 29.8367 44.1329 29.5367 43.8996C29.2701 43.6663 29.1367 43.3329 29.1367 42.8996V25.3996V2.89961C29.1367 2.19961 29.4701 1.59961 30.1367 1.09961C30.8367 0.59961 31.5534 0.349609 32.2867 0.349609C32.7534 0.349609 33.1201 0.466277 33.3867 0.699612C33.6867 0.899611 33.8367 1.23294 33.8367 1.69961V24.1996ZM31.0367 35.4496C31.0367 31.5829 31.3201 28.1829 31.8867 25.2496C32.4534 22.2829 33.6701 19.7829 35.5367 17.7496C37.4034 15.7163 40.1367 14.6996 43.7367 14.6996C46.3034 14.6996 48.2534 15.4163 49.5867 16.8496C50.9534 18.2829 51.6367 20.5829 51.6367 23.7496V41.6996C51.6367 42.3996 51.2867 42.9996 50.5867 43.4996C49.8867 43.9996 49.1701 44.2496 48.4367 44.2496C48.0034 44.2496 47.6367 44.1329 47.3367 43.8996C47.0701 43.6663 46.9367 43.3329 46.9367 42.8996V24.9496C46.9367 22.7829 46.6201 21.2329 45.9867 20.2996C45.3534 19.3663 44.1034 18.8996 42.2367 18.8996C39.1701 18.8996 36.9867 20.7163 35.6867 24.3496C34.4201 27.9496 33.7867 33.2496 33.7867 40.2496C33.7867 40.6163 33.5367 40.9663 33.0367 41.2996C32.5701 41.5996 32.1201 41.7496 31.6867 41.7496C31.2867 41.7496 31.0867 41.5829 31.0867 41.2496L31.0367 35.4496Z" fill="white"/>
<path d="M0.85 26.6496C0.316667 25.2829 0.05 23.9663 0.05 22.6996C0.05 20.2996 1.01667 18.3996 2.95 16.9996C4.91667 15.5663 7.6 14.8496 11 14.8496C14 14.8496 16.35 15.1996 18.05 15.8996C19.75 16.5663 20.95 17.6163 21.65 19.0496C22.3833 20.4829 22.75 22.3663 22.75 24.6996V34.1996V41.6996C22.75 42.3996 22.4 42.9996 21.7 43.4996C21 43.9996 20.2833 44.2496 19.55 44.2496C19.1167 44.2496 18.75 44.1329 18.45 43.8996C18.1833 43.6663 18.05 43.3329 18.05 42.8996V35.3996V25.8996C18.05 23.9663 17.7833 22.4996 17.25 21.4996C16.75 20.4663 15.9 19.7496 14.7 19.3496C13.5333 18.9496 11.8333 18.7496 9.6 18.7496C8.1 18.7496 6.98333 18.7829 6.25 18.8496C5.55 18.8829 5.01667 19.0163 4.65 19.2496C4.31667 19.4829 4.15 19.8663 4.15 20.3996C4.15 20.7996 4.23333 21.2996 4.4 21.8996C4.6 22.4996 4.91667 23.3496 5.35 24.4496L5.45 24.9996C5.45 25.6329 5.1 26.2163 4.4 26.7496C3.7 27.2496 3 27.4996 2.3 27.4996C1.56667 27.4996 1.08333 27.2163 0.85 26.6496ZM18.25 33.7996C16.3167 32.9663 14.6667 32.4163 13.3 32.1496C11.9333 31.8496 10.2333 31.6996 8.2 31.6996C6.86667 31.6996 5.98333 31.7496 5.55 31.8496C5.15 31.9163 4.9 32.1163 4.8 32.4496C4.73333 32.7829 4.7 33.4996 4.7 34.5996C4.7 36.3329 4.86667 37.6496 5.2 38.5496C5.56667 39.4163 6.11667 40.0163 6.85 40.3496C7.58333 40.6829 8.61667 40.8496 9.95 40.8496C10.85 40.8496 11.85 40.6496 12.95 40.2496C14.05 39.8163 15.0833 39.0829 16.05 38.0496C17.05 36.9829 17.8167 35.5996 18.35 33.8996C18.4833 33.4663 18.75 33.1329 19.15 32.8996C19.55 32.6663 19.9667 32.5496 20.4 32.5496C20.7333 32.5496 21.0167 32.6329 21.25 32.7996C21.4833 32.9663 21.6 33.1996 21.6 33.4996L21.55 33.8996C21.0167 35.5996 20.0667 37.2996 18.7 38.9996C17.3667 40.6663 15.7833 42.0329 13.95 43.0996C12.15 44.1996 10.35 44.7496 8.55 44.7496C5.61667 44.7496 3.45 43.9996 2.05 42.4996C0.683333 40.9996 0 38.7663 0 35.7996C0 34.1996 0.416667 32.7996 1.25 31.5996C2.11667 30.3996 3.25 29.4829 4.65 28.8496C6.08333 28.2163 7.63333 27.8996 9.3 27.8996C11.4667 27.8996 13.4 28.0829 15.1 28.4496C16.8 28.8163 18.6833 29.4329 20.75 30.2996C21.35 30.5663 21.65 30.9829 21.65 31.5496C21.65 32.1163 21.3833 32.6663 20.85 33.1996C20.3167 33.6996 19.7167 33.9496 19.05 33.9496C18.7833 33.9496 18.5167 33.8996 18.25 33.7996Z" fill="white"/>
</svg>
