<svg width="108" height="55" viewBox="0 0 108 55" fill="none" xmlns="http://www.w3.org/2000/svg">
<path d="M107.42 17.5C105.086 27.2333 101.586 37.0333 96.9195 46.9C95.9195 48.9667 94.4862 50.7667 92.6195 52.3C90.7529 53.8333 88.7695 54.6 86.6695 54.6C84.8029 54.6 83.1362 54.1167 81.6695 53.15C81.2362 52.85 81.0195 52.5 81.0195 52.1C81.0195 51.5667 81.3362 51.0667 81.9695 50.6C82.6029 50.1667 83.2862 49.95 84.0195 49.95C84.5529 49.95 85.0029 50.0833 85.3695 50.35C85.6029 50.4833 85.9195 50.6 86.3195 50.7C86.7195 50.8333 87.0695 50.9 87.3695 50.9C88.4695 50.9 89.2862 50.7667 89.8195 50.5C90.3862 50.2667 90.8195 49.8833 91.1195 49.35C91.4529 48.85 91.9529 47.9 92.6195 46.5C97.2195 36.8333 100.62 27.3 102.82 17.9C102.986 17.2667 103.37 16.75 103.97 16.35C104.603 15.95 105.236 15.75 105.87 15.75C106.403 15.75 106.82 15.9 107.12 16.2C107.453 16.5 107.553 16.9333 107.42 17.5ZM93.7195 44.2C91.1862 34.0333 87.5529 25.65 82.8195 19.05C82.6529 18.85 82.5695 18.5833 82.5695 18.25C82.5695 17.65 82.9029 17.0833 83.5695 16.55C84.2695 16.0167 84.9862 15.75 85.7195 15.75C86.2862 15.75 86.7195 15.95 87.0195 16.35C91.7195 22.9167 95.3862 31.6 98.0195 42.4C98.1862 43.0667 97.9195 43.6833 97.2195 44.25C96.5195 44.85 95.7862 45.15 95.0195 45.15C94.6862 45.15 94.4029 45.0667 94.1695 44.9C93.9362 44.7333 93.7862 44.5 93.7195 44.2Z" fill="white"/>
<path d="M67.5934 41.25C70.56 41.25 72.61 41 73.7434 40.5C74.91 40 75.66 38.9333 75.9934 37.3C76.36 35.6667 76.5434 32.7667 76.5434 28.6V27C76.5434 24.3 76.46 22.4667 76.2934 21.5C76.16 20.5333 75.81 19.9 75.2434 19.6C74.71 19.3 73.6767 19.15 72.1434 19.15H70.0934C67.1267 19.15 65.06 19.4 63.8934 19.9C62.76 20.4 62.01 21.4667 61.6434 23.1C61.31 24.7333 61.1434 27.6333 61.1434 31.8V33.4C61.1434 36.1 61.21 37.9333 61.3434 38.9C61.51 39.8667 61.86 40.5 62.3934 40.8C62.96 41.1 64.01 41.25 65.5434 41.25H67.5934ZM66.1934 45.15C63.2267 45.15 61.0767 44.85 59.7434 44.25C58.41 43.65 57.5267 42.5333 57.0934 40.9C56.66 39.2667 56.4434 36.6333 56.4434 33C56.4434 28.9333 56.86 25.6333 57.6934 23.1C58.56 20.5333 60.0767 18.5833 62.2434 17.25C64.4434 15.9167 67.5267 15.25 71.4934 15.25C74.46 15.25 76.61 15.55 77.9434 16.15C79.2767 16.75 80.16 17.8667 80.5934 19.5C81.0267 21.1333 81.2434 23.7667 81.2434 27.4C81.2434 31.4667 80.81 34.7833 79.9434 37.35C79.11 39.8833 77.5934 41.8167 75.3934 43.15C73.2267 44.4833 70.16 45.15 66.1934 45.15Z" fill="white"/>
<path d="M33.8367 24.6V42.1C33.8367 42.8 33.4867 43.4 32.7867 43.9C32.0867 44.4 31.3701 44.65 30.6367 44.65C30.2034 44.65 29.8367 44.5333 29.5367 44.3C29.2701 44.0667 29.1367 43.7333 29.1367 43.3V25.8V3.3C29.1367 2.6 29.4701 2 30.1367 1.5C30.8367 1 31.5534 0.75 32.2867 0.75C32.7534 0.75 33.1201 0.866668 33.3867 1.1C33.6867 1.3 33.8367 1.63333 33.8367 2.1V24.6ZM31.0867 43.25C31.0867 38.6833 31.7701 34.2167 33.1367 29.85C34.5034 25.4833 36.4867 21.9167 39.0867 19.15C41.7201 16.35 44.8201 14.95 48.3867 14.95C49.6201 14.95 50.4701 15.5333 50.9367 16.7C51.4034 17.8333 51.6367 19.4667 51.6367 21.6V42.1C51.6367 42.8 51.2867 43.4 50.5867 43.9C49.8867 44.4 49.1701 44.65 48.4367 44.65C48.0034 44.65 47.6367 44.5333 47.3367 44.3C47.0701 44.0667 46.9367 43.7333 46.9367 43.3V22.8L46.9867 19.25C44.7201 19.25 42.5701 20.0667 40.5367 21.7C38.5367 23.3333 36.9034 25.8833 35.6367 29.35C34.4034 32.7833 33.7867 37.0833 33.7867 42.25C33.7867 42.6167 33.5367 42.95 33.0367 43.25C32.5701 43.5833 32.1201 43.75 31.6867 43.75C31.2867 43.75 31.0867 43.5833 31.0867 43.25Z" fill="white"/>
<path d="M1.4 23.15C1.5 21.65 2.2 20.3 3.5 19.1C4.8 17.8667 6.43333 16.9167 8.4 16.25C10.3667 15.5833 12.35 15.25 14.35 15.25C16.45 15.25 18.1 15.6 19.3 16.3C20.5 16.9667 21.35 18.0167 21.85 19.45C22.3833 20.85 22.65 22.7167 22.65 25.05V34.6V42.1C22.65 42.8 22.3 43.4 21.6 43.9C20.9 44.4 20.1833 44.65 19.45 44.65C19.0167 44.65 18.65 44.5333 18.35 44.3C18.0833 44.0667 17.95 43.7333 17.95 43.3V35.8V26.25C17.95 24.1167 17.8 22.5667 17.5 21.6C17.2 20.6 16.7167 19.95 16.05 19.65C15.3833 19.3167 14.35 19.15 12.95 19.15C11.45 19.15 10.1833 19.35 9.15 19.75C8.15 20.1167 7.4 20.5333 6.9 21C6.4 21.4667 6.13333 21.85 6.1 22.15C6.03333 22.85 5.66667 23.4333 5 23.9C4.33333 24.3667 3.65 24.6 2.95 24.6C2.48333 24.6 2.1 24.4833 1.8 24.25C1.5 23.9833 1.36667 23.6167 1.4 23.15ZM19.45 30.75C18.45 31.0167 17.3 31.2 16 31.3C14.7 31.4 12.85 31.45 10.45 31.45C8.51667 31.45 7.18333 31.4833 6.45 31.55C5.71667 31.6167 5.23333 31.7667 5 32C4.76667 32.2333 4.65 32.6667 4.65 33.3C4.65 35.8333 4.71667 37.6667 4.85 38.8C5.01667 39.9333 5.23333 40.6333 5.5 40.9C5.76667 41.1333 6.15 41.25 6.65 41.25C6.78333 41.25 7.68333 40.7333 9.35 39.7C11.05 38.6333 12.7833 37.35 14.55 35.85C16.35 34.35 17.7333 32.7833 18.7 31.15C19.1667 30.4167 19.7833 30.05 20.55 30.05C21.05 30.05 21.4667 30.2 21.8 30.5C22.1667 30.8 22.35 31.1833 22.35 31.65C22.35 31.9833 22.2667 32.2833 22.1 32.55C20.6667 34.95 18.9333 37.1167 16.9 39.05C14.9 40.95 12.8667 42.4333 10.8 43.5C8.73333 44.6 6.88333 45.15 5.25 45.15C3.75 45.15 2.61667 44.8167 1.85 44.15C1.11667 43.4833 0.616667 42.5 0.35 41.2C0.116667 39.8667 0 38.0667 0 35.8C0 30.5 3.61667 27.85 10.85 27.85C13.1833 27.85 14.9 27.8 16 27.7C17.1 27.6 18.0167 27.45 18.75 27.25L19.35 27.15C19.85 27.15 20.25 27.3167 20.55 27.65C20.85 27.9833 21 28.3833 21 28.85C21 29.2833 20.8667 29.6833 20.6 30.05C20.3333 30.3833 19.95 30.6167 19.45 30.75Z" fill="white"/>
</svg>
