<svg width="110" height="56" viewBox="0 0 110 56" fill="none" xmlns="http://www.w3.org/2000/svg">
<path d="M109.87 17.0498C107.603 26.6498 104.103 36.4498 99.3695 46.4498C98.9029 47.4165 97.8695 48.6498 96.2695 50.1498C94.7029 51.6498 92.9862 52.9498 91.1195 54.0498C89.2862 55.1831 87.7029 55.7498 86.3695 55.7498C85.5695 55.7498 84.7195 55.5831 83.8195 55.2498C82.9195 54.9165 82.0695 54.4831 81.2695 53.9498C80.9362 53.7165 80.7695 53.4498 80.7695 53.1498C80.7695 52.5165 81.4195 51.8998 82.7195 51.2998C83.9862 50.7331 85.2195 50.4498 86.4195 50.4498C87.1862 50.4498 87.7695 50.5831 88.1695 50.8498C88.3695 51.0165 88.6862 51.0998 89.1195 51.0998L90.0695 51.0498C90.6695 51.0498 91.0862 51.0831 91.3195 51.1498C91.5529 51.2165 91.7362 51.2665 91.8695 51.2998C91.8695 51.2998 91.8529 51.2498 91.8195 51.1498C91.7862 51.0831 91.7695 50.9665 91.7695 50.7998C91.7695 50.1998 92.0362 49.3498 92.5695 48.2498C97.1362 38.6165 100.536 29.0831 102.77 19.6498C102.903 19.0498 103.32 18.4498 104.02 17.8498C104.753 17.2498 105.553 16.7665 106.42 16.3998C107.32 15.9998 108.103 15.7998 108.77 15.7998C109.703 15.7998 110.07 16.2165 109.87 17.0498ZM93.6195 45.6998C91.1195 35.4998 87.4695 27.0665 82.6695 20.3998C82.5695 20.2331 82.5195 20.0498 82.5195 19.8498C82.5195 19.3498 82.8695 18.7831 83.5695 18.1498C84.2362 17.5165 85.0362 16.9831 85.9695 16.5498C86.9029 16.0831 87.7195 15.8498 88.4195 15.8498C88.9529 15.8498 89.3362 15.9998 89.5695 16.2998C94.1695 22.7665 97.8195 31.3998 100.52 42.1998C100.653 42.7331 100.386 43.3165 99.7195 43.9498C99.0529 44.6165 98.2195 45.1831 97.2195 45.6498C96.2529 46.1165 95.4362 46.3498 94.7695 46.3498C94.1362 46.3498 93.7529 46.1331 93.6195 45.6998Z" fill="white"/>
<path d="M73.5434 41.3996C74.51 41.3996 75.1934 41.2329 75.5934 40.8996C75.9934 40.5663 76.2434 39.8996 76.3434 38.8996C76.4767 37.8663 76.5434 36.1163 76.5434 33.6496V30.1996C76.5434 26.5663 76.4267 24.1496 76.1934 22.9496C75.96 21.7496 75.4434 21.0163 74.6434 20.7496C73.8767 20.4829 72.2434 20.3496 69.7434 20.3496L66.5434 20.2996C65.5767 20.2996 64.8934 20.4663 64.4934 20.7996C64.0934 21.1329 63.8267 21.8163 63.6934 22.8496C63.5934 23.8496 63.5434 25.5829 63.5434 28.0496V31.4996C63.5434 34.9996 63.6434 37.3663 63.8434 38.5996C64.0434 39.7996 64.51 40.5663 65.2434 40.8996C65.9767 41.1996 67.41 41.3496 69.5434 41.3496L73.5434 41.3996ZM65.8434 46.3496C62.91 46.3496 60.81 46.0829 59.5434 45.5496C58.2767 45.0163 57.4434 43.9829 57.0434 42.4496C56.6434 40.8829 56.4434 38.2663 56.4434 34.5996C56.4434 28.6996 57.76 24.0163 60.3934 20.5496C63.06 17.0829 67.6767 15.3496 74.2434 15.3496C77.1767 15.3496 79.2767 15.6163 80.5434 16.1496C81.81 16.6829 82.6434 17.7329 83.0434 19.2996C83.4434 20.8329 83.6434 23.4329 83.6434 27.0996C83.6434 32.9996 82.31 37.6829 79.6434 41.1496C77.01 44.6163 72.41 46.3496 65.8434 46.3496Z" fill="white"/>
<path d="M36.2367 24.2998V41.7998C36.2367 42.3998 35.8867 43.0165 35.1867 43.6498C34.5201 44.2831 33.7034 44.8165 32.7367 45.2498C31.8034 45.6831 31.0034 45.8998 30.3367 45.8998C29.5367 45.8998 29.1367 45.5665 29.1367 44.8998V27.3998V4.8998C29.1367 4.33314 29.4701 3.73314 30.1367 3.0998C30.8367 2.43314 31.6701 1.88314 32.6367 1.4498C33.6034 1.01647 34.4201 0.799805 35.0867 0.799805C35.8534 0.799805 36.2367 1.13314 36.2367 1.7998V24.2998ZM30.9867 44.7498C30.9867 40.7498 31.7867 36.3831 33.3867 31.6498C34.9867 26.8831 37.2867 22.8498 40.2867 19.5498C43.2867 16.2165 46.7867 14.5498 50.7867 14.5498C51.8534 14.5498 52.6534 15.1498 53.1867 16.3498C53.7534 17.5498 54.0367 19.1998 54.0367 21.2998V41.7998C54.0367 42.3998 53.6867 43.0165 52.9867 43.6498C52.3201 44.2831 51.5034 44.8165 50.5367 45.2498C49.6034 45.6831 48.8034 45.8998 48.1367 45.8998C47.3367 45.8998 46.9367 45.5665 46.9367 44.8998V24.3998C46.9367 22.1665 46.9534 21.0498 46.9867 21.0498C45.3201 21.0498 43.6867 21.6498 42.0867 22.8498C40.4867 24.0498 39.1201 26.2165 37.9867 29.3498C36.8534 32.4831 36.2867 36.7165 36.2867 42.0498C36.2867 42.3498 35.9701 42.7498 35.3367 43.2498C34.7034 43.7165 33.9867 44.1331 33.1867 44.4998C32.4201 44.8998 31.8367 45.0998 31.4367 45.0998C31.1367 45.0998 30.9867 44.9831 30.9867 44.7498Z" fill="white"/>
<path d="M1.4 24.7496C1.5 23.2163 2.4 21.7329 4.1 20.2996C5.83333 18.8329 7.91667 17.6496 10.35 16.7496C12.7833 15.8163 15.0333 15.3496 17.1 15.3496C19.2 15.3496 20.8167 15.6663 21.95 16.2996C23.1167 16.9329 23.9167 17.9163 24.35 19.2496C24.8167 20.5829 25.05 22.4163 25.05 24.7496V34.2996V41.7996C25.05 42.3996 24.7 43.0163 24 43.6496C23.3333 44.2829 22.5167 44.8163 21.55 45.2496C20.6167 45.6829 19.8167 45.8996 19.15 45.8996C18.35 45.8996 17.95 45.5663 17.95 44.8996V37.3996V27.8496C17.95 25.7163 17.7667 24.1163 17.4 23.0496C17.0667 21.9829 16.5167 21.2663 15.75 20.8996C15.0167 20.5329 13.9667 20.3496 12.6 20.3496C11.2333 20.3496 10.25 20.4163 9.65 20.5496C9.05 20.6829 8.7 20.8329 8.6 20.9996C8.53333 21.1663 8.5 21.4163 8.5 21.7496C8.5 22.3496 8.15 22.9663 7.45 23.5996C6.78333 24.2329 5.98333 24.7663 5.05 25.1996C4.11667 25.6329 3.3 25.8496 2.6 25.8496C2.2 25.8496 1.88333 25.7663 1.65 25.5996C1.45 25.3996 1.36667 25.1163 1.4 24.7496ZM19.65 31.7996C18.4833 32.1329 17.25 32.3496 15.95 32.4496C14.65 32.5496 12.7167 32.5996 10.15 32.5996C9.25 32.5996 8.51667 32.5829 7.95 32.5496C7.38333 32.4829 6.98333 32.4329 6.75 32.3996C6.51667 32.3329 6.36667 32.2829 6.3 32.2496C6.33333 32.2829 6.41667 32.3663 6.55 32.4996C6.68333 32.5996 6.8 32.7996 6.9 33.0996C7.03333 33.3996 7.1 33.7996 7.1 34.2996C7.1 36.3996 7.2 37.9663 7.4 38.9996C7.6 39.9996 7.85 40.6496 8.15 40.9496C8.48333 41.2163 8.9 41.3496 9.4 41.3496C9.56667 41.3496 10.1833 41.0496 11.25 40.4496C12.35 39.8163 13.5833 38.8663 14.95 37.5996C16.35 36.3329 17.6167 34.7496 18.75 32.8496C19.2167 32.0496 19.9 31.4163 20.8 30.9496C21.7333 30.4496 22.6 30.1996 23.4 30.1996C24.3333 30.1996 24.8 30.5163 24.8 31.1496C24.8 31.4496 24.6833 31.7829 24.45 32.1496C23.0833 34.4163 21.25 36.6496 18.95 38.8496C16.65 41.0496 14.2333 42.8496 11.7 44.2496C9.16667 45.6496 6.9 46.3496 4.9 46.3496C3.43333 46.3496 2.35 46.0496 1.65 45.4496C0.983333 44.8496 0.533333 43.9496 0.3 42.7496C0.1 41.5163 0 39.7329 0 37.3996C0 35.5996 0.7 33.9829 2.1 32.5496C3.5 31.1163 5.25 29.9996 7.35 29.1996C9.45 28.3996 11.5167 27.9996 13.55 27.9996C17.2167 27.9996 19.6833 27.8329 20.95 27.4996C21.35 27.3663 21.7333 27.2996 22.1 27.2996C22.9333 27.2996 23.35 27.6329 23.35 28.2996C23.35 28.9329 23 29.5996 22.3 30.2996C21.6 30.9996 20.7167 31.4996 19.65 31.7996Z" fill="white"/>
</svg>
